%TF.GenerationSoftware,KiCad,Pcbnew,8.0.0*%
%TF.CreationDate,2024-03-31T23:26:35-03:00*%
%TF.ProjectId,Ponderada Semana 6,506f6e64-6572-4616-9461-2053656d616e,rev?*%
%TF.SameCoordinates,Original*%
%TF.FileFunction,Copper,L2,Bot*%
%TF.FilePolarity,Positive*%
%FSLAX46Y46*%
G04 Gerber Fmt 4.6, Leading zero omitted, Abs format (unit mm)*
G04 Created by KiCad (PCBNEW 8.0.0) date 2024-03-31 23:26:35*
%MOMM*%
%LPD*%
G01*
G04 APERTURE LIST*
%TA.AperFunction,ComponentPad*%
%ADD10C,1.400000*%
%TD*%
%TA.AperFunction,ComponentPad*%
%ADD11O,1.400000X1.400000*%
%TD*%
%TA.AperFunction,ComponentPad*%
%ADD12C,1.800000*%
%TD*%
%TA.AperFunction,ComponentPad*%
%ADD13R,1.800000X1.800000*%
%TD*%
%TA.AperFunction,ComponentPad*%
%ADD14O,1.700000X1.700000*%
%TD*%
%TA.AperFunction,ComponentPad*%
%ADD15R,1.700000X1.700000*%
%TD*%
%TA.AperFunction,ComponentPad*%
%ADD16C,1.600000*%
%TD*%
%TA.AperFunction,ComponentPad*%
%ADD17R,1.500000X1.050000*%
%TD*%
%TA.AperFunction,ComponentPad*%
%ADD18O,1.500000X1.050000*%
%TD*%
%TA.AperFunction,ComponentPad*%
%ADD19O,2.000000X3.000000*%
%TD*%
%TA.AperFunction,ComponentPad*%
%ADD20R,3.000000X2.000000*%
%TD*%
%TA.AperFunction,ComponentPad*%
%ADD21O,3.000000X2.000000*%
%TD*%
%TA.AperFunction,ComponentPad*%
%ADD22R,0.850000X0.850000*%
%TD*%
G04 APERTURE END LIST*
D10*
%TO.P,R2,1*%
%TO.N,Net-(Q1-B)*%
X156840000Y-100965000D03*
D11*
%TO.P,R2,2*%
%TO.N,Net-(U1-GPIO22)*%
X149220000Y-100965000D03*
%TD*%
D10*
%TO.P,R1,1*%
%TO.N,Net-(D1-A)*%
X149484000Y-71120000D03*
D11*
%TO.P,R1,2*%
%TO.N,Net-(D2-A)*%
X157104000Y-71120000D03*
%TD*%
D12*
%TO.P,D1,2,A*%
%TO.N,Net-(D1-A)*%
X148082000Y-78110000D03*
D13*
%TO.P,D1,1,K*%
%TO.N,VCC*%
X148082000Y-80650000D03*
%TD*%
D14*
%TO.P,U1,43,SWDIO*%
%TO.N,unconnected-(U1-SWDIO-Pad43)*%
X132262000Y-118086000D03*
D15*
%TO.P,U1,42,GND*%
%TO.N,unconnected-(U1-GND-Pad42)*%
X129722000Y-118086000D03*
D14*
%TO.P,U1,41,SWCLK*%
%TO.N,unconnected-(U1-SWCLK-Pad41)*%
X127182000Y-118086000D03*
%TO.P,U1,40,VBUS*%
%TO.N,unconnected-(U1-VBUS-Pad40)*%
X138612000Y-70056000D03*
%TO.P,U1,39,VSYS*%
%TO.N,unconnected-(U1-VSYS-Pad39)*%
X138612000Y-72596000D03*
D15*
%TO.P,U1,38,GND*%
%TO.N,unconnected-(U1-GND-Pad38)*%
X138612000Y-75136000D03*
D14*
%TO.P,U1,37,3V3_EN*%
%TO.N,Net-(U1-3V3_EN)*%
X138612000Y-77676000D03*
%TO.P,U1,36,3V3*%
%TO.N,unconnected-(U1-3V3-Pad36)*%
X138612000Y-80216000D03*
%TO.P,U1,35,ADC_VREF*%
%TO.N,unconnected-(U1-ADC_VREF-Pad35)*%
X138612000Y-82756000D03*
%TO.P,U1,34,GPIO28_ADC2*%
%TO.N,unconnected-(U1-GPIO28_ADC2-Pad34)*%
X138612000Y-85296000D03*
D15*
%TO.P,U1,33,AGND*%
%TO.N,Net-(U1-AGND)*%
X138612000Y-87836000D03*
D14*
%TO.P,U1,32,GPIO27_ADC1*%
%TO.N,unconnected-(U1-GPIO27_ADC1-Pad32)*%
X138612000Y-90376000D03*
%TO.P,U1,31,GPIO26_ADC0*%
%TO.N,Net-(U1-AGND)*%
X138612000Y-92916000D03*
%TO.P,U1,30,RUN*%
%TO.N,unconnected-(U1-RUN-Pad30)*%
X138612000Y-95456000D03*
%TO.P,U1,29,GPIO22*%
%TO.N,Net-(U1-GPIO22)*%
X138612000Y-97996000D03*
D15*
%TO.P,U1,28,GND*%
%TO.N,unconnected-(U1-GND-Pad28)*%
X138612000Y-100536000D03*
D14*
%TO.P,U1,27,GPIO21*%
%TO.N,unconnected-(U1-GPIO21-Pad27)*%
X138612000Y-103076000D03*
%TO.P,U1,26,GPIO20*%
%TO.N,unconnected-(U1-GPIO20-Pad26)*%
X138612000Y-105616000D03*
%TO.P,U1,25,GPIO19*%
%TO.N,unconnected-(U1-GPIO19-Pad25)*%
X138612000Y-108156000D03*
%TO.P,U1,24,GPIO18*%
%TO.N,unconnected-(U1-GPIO18-Pad24)*%
X138612000Y-110696000D03*
D15*
%TO.P,U1,23,GND*%
%TO.N,unconnected-(U1-GND-Pad23)*%
X138612000Y-113236000D03*
D14*
%TO.P,U1,22,GPIO17*%
%TO.N,unconnected-(U1-GPIO17-Pad22)*%
X138612000Y-115776000D03*
%TO.P,U1,21,GPIO16*%
%TO.N,unconnected-(U1-GPIO16-Pad21)*%
X138612000Y-118316000D03*
%TO.P,U1,20,GPIO15*%
%TO.N,unconnected-(U1-GPIO15-Pad20)*%
X120832000Y-118316000D03*
%TO.P,U1,19,GPIO14*%
%TO.N,unconnected-(U1-GPIO14-Pad19)*%
X120832000Y-115776000D03*
D15*
%TO.P,U1,18,GND*%
%TO.N,unconnected-(U1-GND-Pad18)*%
X120832000Y-113236000D03*
D14*
%TO.P,U1,17,GPIO13*%
%TO.N,unconnected-(U1-GPIO13-Pad17)*%
X120832000Y-110696000D03*
%TO.P,U1,16,GPIO12*%
%TO.N,unconnected-(U1-GPIO12-Pad16)*%
X120832000Y-108156000D03*
%TO.P,U1,15,GPIO11*%
%TO.N,unconnected-(U1-GPIO11-Pad15)*%
X120832000Y-105616000D03*
%TO.P,U1,14,GPIO10*%
%TO.N,unconnected-(U1-GPIO10-Pad14)*%
X120832000Y-103076000D03*
D15*
%TO.P,U1,13,GND*%
%TO.N,unconnected-(U1-GND-Pad13)*%
X120832000Y-100536000D03*
D14*
%TO.P,U1,12,GPIO9*%
%TO.N,unconnected-(U1-GPIO9-Pad12)*%
X120832000Y-97996000D03*
%TO.P,U1,11,GPIO8*%
%TO.N,unconnected-(U1-GPIO8-Pad11)*%
X120832000Y-95456000D03*
%TO.P,U1,10,GPIO7*%
%TO.N,unconnected-(U1-GPIO7-Pad10)*%
X120832000Y-92916000D03*
%TO.P,U1,9,GPIO6*%
%TO.N,unconnected-(U1-GPIO6-Pad9)*%
X120832000Y-90376000D03*
D15*
%TO.P,U1,8,GND*%
%TO.N,unconnected-(U1-GND-Pad8)*%
X120832000Y-87836000D03*
D14*
%TO.P,U1,7,GPIO5*%
%TO.N,unconnected-(U1-GPIO5-Pad7)*%
X120832000Y-85296000D03*
%TO.P,U1,6,GPIO4*%
%TO.N,unconnected-(U1-GPIO4-Pad6)*%
X120832000Y-82756000D03*
%TO.P,U1,5,GPIO3*%
%TO.N,unconnected-(U1-GPIO3-Pad5)*%
X120832000Y-80216000D03*
%TO.P,U1,4,GPIO2*%
%TO.N,unconnected-(U1-GPIO2-Pad4)*%
X120832000Y-77676000D03*
D15*
%TO.P,U1,3,GND*%
%TO.N,unconnected-(U1-GND-Pad3)*%
X120832000Y-75136000D03*
D14*
%TO.P,U1,2,GPIO1*%
%TO.N,unconnected-(U1-GPIO1-Pad2)*%
X120832000Y-72596000D03*
%TO.P,U1,1,GPIO0*%
%TO.N,unconnected-(U1-GPIO0-Pad1)*%
X120832000Y-70056000D03*
%TD*%
D16*
%TO.P,PhotoResistor1,2*%
%TO.N,Net-(U1-AGND)*%
X152146000Y-93648000D03*
%TO.P,PhotoResistor1,1*%
%TO.N,Net-(U1-3V3_EN)*%
X152146000Y-90248000D03*
%TD*%
D17*
%TO.P,Q1,1,C*%
%TO.N,Net-(D2-A)*%
X165629000Y-99695000D03*
D18*
%TO.P,Q1,2,B*%
%TO.N,Net-(Q1-B)*%
X165629000Y-100965000D03*
%TO.P,Q1,3,E*%
%TO.N,GND*%
X165629000Y-102235000D03*
%TD*%
D19*
%TO.P,K1,11*%
%TO.N,N/C*%
X185823000Y-76260000D03*
%TO.P,K1,14*%
%TO.N,Net-(J1-Pin_1)*%
X190863000Y-83760000D03*
D20*
%TO.P,K1,A1*%
%TO.N,VCC*%
X165523000Y-83760000D03*
D21*
%TO.P,K1,A2*%
%TO.N,Net-(D2-A)*%
X165523000Y-76260000D03*
%TD*%
D22*
%TO.P,J1,1,Pin_1*%
%TO.N,Net-(J1-Pin_1)*%
X198247000Y-83820000D03*
%TD*%
%TA.AperFunction,Conductor*%
%TO.N,GND*%
G36*
X205615958Y-66420490D02*
G01*
X205682916Y-66440450D01*
X205728453Y-66493442D01*
X205739447Y-66545041D01*
X205486555Y-123319186D01*
X205466572Y-123386137D01*
X205413565Y-123431657D01*
X205361192Y-123442626D01*
X113279360Y-122429346D01*
X113212541Y-122408925D01*
X113167370Y-122355621D01*
X113156724Y-122305633D01*
X113150745Y-119651063D01*
X113147738Y-118316000D01*
X119476341Y-118316000D01*
X119496936Y-118551403D01*
X119496938Y-118551413D01*
X119558094Y-118779655D01*
X119558096Y-118779659D01*
X119558097Y-118779663D01*
X119653322Y-118983873D01*
X119657965Y-118993830D01*
X119657967Y-118993834D01*
X119749456Y-119124493D01*
X119793505Y-119187401D01*
X119960599Y-119354495D01*
X119996733Y-119379796D01*
X120154165Y-119490032D01*
X120154167Y-119490033D01*
X120154170Y-119490035D01*
X120368337Y-119589903D01*
X120596592Y-119651063D01*
X120784918Y-119667539D01*
X120831999Y-119671659D01*
X120832000Y-119671659D01*
X120832001Y-119671659D01*
X120871234Y-119668226D01*
X121067408Y-119651063D01*
X121295663Y-119589903D01*
X121509830Y-119490035D01*
X121703401Y-119354495D01*
X121870495Y-119187401D01*
X122006035Y-118993830D01*
X122105903Y-118779663D01*
X122167063Y-118551408D01*
X122187659Y-118316000D01*
X122167536Y-118086000D01*
X125826341Y-118086000D01*
X125846936Y-118321403D01*
X125846938Y-118321413D01*
X125908094Y-118549655D01*
X125908096Y-118549659D01*
X125908097Y-118549663D01*
X125992499Y-118730663D01*
X126007965Y-118763830D01*
X126007967Y-118763834D01*
X126116281Y-118918521D01*
X126143505Y-118957401D01*
X126310599Y-119124495D01*
X126400429Y-119187395D01*
X126504165Y-119260032D01*
X126504167Y-119260033D01*
X126504170Y-119260035D01*
X126718337Y-119359903D01*
X126946592Y-119421063D01*
X127123034Y-119436500D01*
X127181999Y-119441659D01*
X127182000Y-119441659D01*
X127182001Y-119441659D01*
X127240966Y-119436500D01*
X127417408Y-119421063D01*
X127645663Y-119359903D01*
X127859830Y-119260035D01*
X128053401Y-119124495D01*
X128175329Y-119002566D01*
X128236648Y-118969084D01*
X128306340Y-118974068D01*
X128362274Y-119015939D01*
X128379189Y-119046917D01*
X128428202Y-119178328D01*
X128428206Y-119178335D01*
X128514452Y-119293544D01*
X128514455Y-119293547D01*
X128629664Y-119379793D01*
X128629671Y-119379797D01*
X128764517Y-119430091D01*
X128764516Y-119430091D01*
X128771444Y-119430835D01*
X128824127Y-119436500D01*
X130619872Y-119436499D01*
X130679483Y-119430091D01*
X130814331Y-119379796D01*
X130929546Y-119293546D01*
X131015796Y-119178331D01*
X131064810Y-119046916D01*
X131106681Y-118990984D01*
X131172145Y-118966566D01*
X131240418Y-118981417D01*
X131268673Y-119002569D01*
X131390599Y-119124495D01*
X131480429Y-119187395D01*
X131584165Y-119260032D01*
X131584167Y-119260033D01*
X131584170Y-119260035D01*
X131798337Y-119359903D01*
X132026592Y-119421063D01*
X132203034Y-119436500D01*
X132261999Y-119441659D01*
X132262000Y-119441659D01*
X132262001Y-119441659D01*
X132320966Y-119436500D01*
X132497408Y-119421063D01*
X132725663Y-119359903D01*
X132939830Y-119260035D01*
X133133401Y-119124495D01*
X133300495Y-118957401D01*
X133436035Y-118763830D01*
X133535903Y-118549663D01*
X133597063Y-118321408D01*
X133597536Y-118316000D01*
X137256341Y-118316000D01*
X137276936Y-118551403D01*
X137276938Y-118551413D01*
X137338094Y-118779655D01*
X137338096Y-118779659D01*
X137338097Y-118779663D01*
X137433322Y-118983873D01*
X137437965Y-118993830D01*
X137437967Y-118993834D01*
X137529456Y-119124493D01*
X137573505Y-119187401D01*
X137740599Y-119354495D01*
X137776733Y-119379796D01*
X137934165Y-119490032D01*
X137934167Y-119490033D01*
X137934170Y-119490035D01*
X138148337Y-119589903D01*
X138376592Y-119651063D01*
X138564918Y-119667539D01*
X138611999Y-119671659D01*
X138612000Y-119671659D01*
X138612001Y-119671659D01*
X138651234Y-119668226D01*
X138847408Y-119651063D01*
X139075663Y-119589903D01*
X139289830Y-119490035D01*
X139483401Y-119354495D01*
X139650495Y-119187401D01*
X139786035Y-118993830D01*
X139885903Y-118779663D01*
X139947063Y-118551408D01*
X139967659Y-118316000D01*
X139947063Y-118080592D01*
X139885903Y-117852337D01*
X139786035Y-117638171D01*
X139650495Y-117444599D01*
X139650494Y-117444597D01*
X139483402Y-117277506D01*
X139483396Y-117277501D01*
X139297842Y-117147575D01*
X139254217Y-117092998D01*
X139247023Y-117023500D01*
X139278546Y-116961145D01*
X139297842Y-116944425D01*
X139344197Y-116911967D01*
X139483401Y-116814495D01*
X139650495Y-116647401D01*
X139786035Y-116453830D01*
X139885903Y-116239663D01*
X139947063Y-116011408D01*
X139967659Y-115776000D01*
X139947063Y-115540592D01*
X139885903Y-115312337D01*
X139786035Y-115098171D01*
X139650495Y-114904599D01*
X139528567Y-114782671D01*
X139495084Y-114721351D01*
X139500068Y-114651659D01*
X139541939Y-114595725D01*
X139572915Y-114578810D01*
X139704331Y-114529796D01*
X139819546Y-114443546D01*
X139905796Y-114328331D01*
X139956091Y-114193483D01*
X139962500Y-114133873D01*
X139962499Y-112338128D01*
X139956091Y-112278517D01*
X139905796Y-112143669D01*
X139905795Y-112143668D01*
X139905793Y-112143664D01*
X139819547Y-112028455D01*
X139819544Y-112028452D01*
X139704335Y-111942206D01*
X139704328Y-111942202D01*
X139572917Y-111893189D01*
X139516983Y-111851318D01*
X139492566Y-111785853D01*
X139507418Y-111717580D01*
X139528563Y-111689332D01*
X139650495Y-111567401D01*
X139786035Y-111373830D01*
X139885903Y-111159663D01*
X139947063Y-110931408D01*
X139967659Y-110696000D01*
X139947063Y-110460592D01*
X139885903Y-110232337D01*
X139786035Y-110018171D01*
X139650495Y-109824599D01*
X139650494Y-109824597D01*
X139483402Y-109657506D01*
X139483396Y-109657501D01*
X139297842Y-109527575D01*
X139254217Y-109472998D01*
X139247023Y-109403500D01*
X139278546Y-109341145D01*
X139297842Y-109324425D01*
X139320026Y-109308891D01*
X139483401Y-109194495D01*
X139650495Y-109027401D01*
X139786035Y-108833830D01*
X139885903Y-108619663D01*
X139947063Y-108391408D01*
X139967659Y-108156000D01*
X139947063Y-107920592D01*
X139885903Y-107692337D01*
X139786035Y-107478171D01*
X139650495Y-107284599D01*
X139650494Y-107284597D01*
X139483402Y-107117506D01*
X139483396Y-107117501D01*
X139297842Y-106987575D01*
X139254217Y-106932998D01*
X139247023Y-106863500D01*
X139278546Y-106801145D01*
X139297842Y-106784425D01*
X139320026Y-106768891D01*
X139483401Y-106654495D01*
X139650495Y-106487401D01*
X139786035Y-106293830D01*
X139885903Y-106079663D01*
X139947063Y-105851408D01*
X139967659Y-105616000D01*
X139947063Y-105380592D01*
X139885903Y-105152337D01*
X139786035Y-104938171D01*
X139650495Y-104744599D01*
X139650494Y-104744597D01*
X139483402Y-104577506D01*
X139483396Y-104577501D01*
X139297842Y-104447575D01*
X139254217Y-104392998D01*
X139247023Y-104323500D01*
X139278546Y-104261145D01*
X139297842Y-104244425D01*
X139320026Y-104228891D01*
X139483401Y-104114495D01*
X139650495Y-103947401D01*
X139786035Y-103753830D01*
X139885903Y-103539663D01*
X139947063Y-103311408D01*
X139967659Y-103076000D01*
X139947063Y-102840592D01*
X139885903Y-102612337D01*
X139786035Y-102398171D01*
X139650495Y-102204599D01*
X139528567Y-102082671D01*
X139495084Y-102021351D01*
X139500068Y-101951659D01*
X139541939Y-101895725D01*
X139572915Y-101878810D01*
X139704331Y-101829796D01*
X139819546Y-101743546D01*
X139905796Y-101628331D01*
X139956091Y-101493483D01*
X139962500Y-101433873D01*
X139962500Y-100965000D01*
X148014357Y-100965000D01*
X148034884Y-101186535D01*
X148034885Y-101186537D01*
X148095769Y-101400523D01*
X148095775Y-101400538D01*
X148194938Y-101599683D01*
X148194943Y-101599691D01*
X148329020Y-101777238D01*
X148493437Y-101927123D01*
X148493439Y-101927125D01*
X148682595Y-102044245D01*
X148682596Y-102044245D01*
X148682599Y-102044247D01*
X148890060Y-102124618D01*
X149108757Y-102165500D01*
X149108759Y-102165500D01*
X149331241Y-102165500D01*
X149331243Y-102165500D01*
X149549940Y-102124618D01*
X149757401Y-102044247D01*
X149946562Y-101927124D01*
X150110981Y-101777236D01*
X150245058Y-101599689D01*
X150344229Y-101400528D01*
X150405115Y-101186536D01*
X150425643Y-100965000D01*
X155634357Y-100965000D01*
X155654884Y-101186535D01*
X155654885Y-101186537D01*
X155715769Y-101400523D01*
X155715775Y-101400538D01*
X155814938Y-101599683D01*
X155814943Y-101599691D01*
X155949020Y-101777238D01*
X156113437Y-101927123D01*
X156113439Y-101927125D01*
X156302595Y-102044245D01*
X156302596Y-102044245D01*
X156302599Y-102044247D01*
X156510060Y-102124618D01*
X156728757Y-102165500D01*
X156728759Y-102165500D01*
X156951241Y-102165500D01*
X156951243Y-102165500D01*
X157169940Y-102124618D01*
X157377401Y-102044247D01*
X157566562Y-101927124D01*
X157730981Y-101777236D01*
X157865058Y-101599689D01*
X157964229Y-101400528D01*
X158025115Y-101186536D01*
X158036283Y-101066007D01*
X164378500Y-101066007D01*
X164417907Y-101264119D01*
X164417909Y-101264127D01*
X164495212Y-101450754D01*
X164549204Y-101531558D01*
X164570081Y-101598235D01*
X164551596Y-101665615D01*
X164549204Y-101669337D01*
X164495655Y-101749479D01*
X164495654Y-101749481D01*
X164418390Y-101936016D01*
X164418387Y-101936025D01*
X164408647Y-101985000D01*
X165263134Y-101985000D01*
X165287326Y-101987383D01*
X165290123Y-101987939D01*
X165302995Y-101990499D01*
X165302996Y-101990500D01*
X165302997Y-101990500D01*
X165343170Y-101990500D01*
X165328925Y-102004745D01*
X165279556Y-102090255D01*
X165254000Y-102185630D01*
X165254000Y-102284370D01*
X165279556Y-102379745D01*
X165328925Y-102465255D01*
X165348670Y-102485000D01*
X164408647Y-102485000D01*
X164418387Y-102533974D01*
X164418390Y-102533983D01*
X164495652Y-102720513D01*
X164495659Y-102720526D01*
X164607829Y-102888399D01*
X164607832Y-102888403D01*
X164750596Y-103031167D01*
X164750600Y-103031170D01*
X164918473Y-103143340D01*
X164918486Y-103143347D01*
X165105016Y-103220609D01*
X165105025Y-103220612D01*
X165303041Y-103259999D01*
X165303045Y-103260000D01*
X165379000Y-103260000D01*
X165379000Y-102515330D01*
X165398745Y-102535075D01*
X165484255Y-102584444D01*
X165579630Y-102610000D01*
X165678370Y-102610000D01*
X165773745Y-102584444D01*
X165859255Y-102535075D01*
X165879000Y-102515330D01*
X165879000Y-103260000D01*
X165954955Y-103260000D01*
X165954958Y-103259999D01*
X166152974Y-103220612D01*
X166152983Y-103220609D01*
X166339513Y-103143347D01*
X166339526Y-103143340D01*
X166507399Y-103031170D01*
X166507403Y-103031167D01*
X166650167Y-102888403D01*
X166650170Y-102888399D01*
X166762340Y-102720526D01*
X166762347Y-102720513D01*
X166839609Y-102533983D01*
X166839612Y-102533974D01*
X166849353Y-102485000D01*
X165909330Y-102485000D01*
X165929075Y-102465255D01*
X165978444Y-102379745D01*
X166004000Y-102284370D01*
X166004000Y-102185630D01*
X165978444Y-102090255D01*
X165929075Y-102004745D01*
X165914830Y-101990500D01*
X165955004Y-101990500D01*
X165955004Y-101990499D01*
X165968473Y-101987820D01*
X165970674Y-101987383D01*
X165994866Y-101985000D01*
X166849353Y-101985000D01*
X166839612Y-101936025D01*
X166839609Y-101936016D01*
X166762347Y-101749486D01*
X166762343Y-101749479D01*
X166708795Y-101669340D01*
X166687917Y-101602662D01*
X166706401Y-101535282D01*
X166708733Y-101531652D01*
X166762786Y-101450756D01*
X166840091Y-101264127D01*
X166879500Y-101066003D01*
X166879500Y-100863997D01*
X166840091Y-100665873D01*
X166806673Y-100585198D01*
X166799205Y-100515730D01*
X166818964Y-100470340D01*
X166818547Y-100470112D01*
X166821095Y-100465444D01*
X166821972Y-100463431D01*
X166822796Y-100462331D01*
X166873091Y-100327483D01*
X166879500Y-100267873D01*
X166879499Y-99122128D01*
X166873091Y-99062517D01*
X166862639Y-99034495D01*
X166822797Y-98927671D01*
X166822793Y-98927664D01*
X166736547Y-98812455D01*
X166736544Y-98812452D01*
X166621335Y-98726206D01*
X166621328Y-98726202D01*
X166486482Y-98675908D01*
X166486483Y-98675908D01*
X166426883Y-98669501D01*
X166426881Y-98669500D01*
X166426873Y-98669500D01*
X166426864Y-98669500D01*
X164831129Y-98669500D01*
X164831123Y-98669501D01*
X164771516Y-98675908D01*
X164636671Y-98726202D01*
X164636664Y-98726206D01*
X164521455Y-98812452D01*
X164521452Y-98812455D01*
X164435206Y-98927664D01*
X164435202Y-98927671D01*
X164384908Y-99062517D01*
X164378692Y-99120341D01*
X164378501Y-99122123D01*
X164378500Y-99122135D01*
X164378500Y-100267870D01*
X164378501Y-100267876D01*
X164384908Y-100327483D01*
X164435202Y-100462328D01*
X164435203Y-100462330D01*
X164435204Y-100462331D01*
X164436028Y-100463432D01*
X164436509Y-100464721D01*
X164439454Y-100470114D01*
X164438678Y-100470537D01*
X164460448Y-100528895D01*
X164451325Y-100585198D01*
X164417910Y-100665868D01*
X164417907Y-100665880D01*
X164378500Y-100863992D01*
X164378500Y-101066007D01*
X158036283Y-101066007D01*
X158045643Y-100965000D01*
X158025115Y-100743464D01*
X157964229Y-100529472D01*
X157963942Y-100528895D01*
X157865061Y-100330316D01*
X157865056Y-100330308D01*
X157730979Y-100152761D01*
X157566562Y-100002876D01*
X157566560Y-100002874D01*
X157377404Y-99885754D01*
X157377398Y-99885752D01*
X157169940Y-99805382D01*
X156951243Y-99764500D01*
X156728757Y-99764500D01*
X156510060Y-99805382D01*
X156378864Y-99856207D01*
X156302601Y-99885752D01*
X156302595Y-99885754D01*
X156113439Y-100002874D01*
X156113437Y-100002876D01*
X155949020Y-100152761D01*
X155814943Y-100330308D01*
X155814938Y-100330316D01*
X155715775Y-100529461D01*
X155715769Y-100529476D01*
X155654885Y-100743462D01*
X155654884Y-100743464D01*
X155634357Y-100964999D01*
X155634357Y-100965000D01*
X150425643Y-100965000D01*
X150405115Y-100743464D01*
X150344229Y-100529472D01*
X150343942Y-100528895D01*
X150245061Y-100330316D01*
X150245056Y-100330308D01*
X150110979Y-100152761D01*
X149946562Y-100002876D01*
X149946560Y-100002874D01*
X149757404Y-99885754D01*
X149757398Y-99885752D01*
X149549940Y-99805382D01*
X149331243Y-99764500D01*
X149108757Y-99764500D01*
X148890060Y-99805382D01*
X148758864Y-99856207D01*
X148682601Y-99885752D01*
X148682595Y-99885754D01*
X148493439Y-100002874D01*
X148493437Y-100002876D01*
X148329020Y-100152761D01*
X148194943Y-100330308D01*
X148194938Y-100330316D01*
X148095775Y-100529461D01*
X148095769Y-100529476D01*
X148034885Y-100743462D01*
X148034884Y-100743464D01*
X148014357Y-100964999D01*
X148014357Y-100965000D01*
X139962500Y-100965000D01*
X139962499Y-99638128D01*
X139956091Y-99578517D01*
X139905796Y-99443669D01*
X139905795Y-99443668D01*
X139905793Y-99443664D01*
X139819547Y-99328455D01*
X139819544Y-99328452D01*
X139704335Y-99242206D01*
X139704328Y-99242202D01*
X139572917Y-99193189D01*
X139516983Y-99151318D01*
X139492566Y-99085853D01*
X139507418Y-99017580D01*
X139528563Y-98989332D01*
X139650495Y-98867401D01*
X139786035Y-98673830D01*
X139885903Y-98459663D01*
X139947063Y-98231408D01*
X139967659Y-97996000D01*
X139947063Y-97760592D01*
X139885903Y-97532337D01*
X139786035Y-97318171D01*
X139650495Y-97124599D01*
X139650494Y-97124597D01*
X139483402Y-96957506D01*
X139483396Y-96957501D01*
X139297842Y-96827575D01*
X139254217Y-96772998D01*
X139247023Y-96703500D01*
X139278546Y-96641145D01*
X139297842Y-96624425D01*
X139320026Y-96608891D01*
X139483401Y-96494495D01*
X139650495Y-96327401D01*
X139786035Y-96133830D01*
X139885903Y-95919663D01*
X139947063Y-95691408D01*
X139967659Y-95456000D01*
X139947063Y-95220592D01*
X139885903Y-94992337D01*
X139786035Y-94778171D01*
X139694921Y-94648045D01*
X139650494Y-94584597D01*
X139483402Y-94417506D01*
X139483396Y-94417501D01*
X139297842Y-94287575D01*
X139254217Y-94232998D01*
X139247023Y-94163500D01*
X139278546Y-94101145D01*
X139297842Y-94084425D01*
X139320026Y-94068891D01*
X139483401Y-93954495D01*
X139650495Y-93787401D01*
X139748104Y-93648001D01*
X150840532Y-93648001D01*
X150860364Y-93874686D01*
X150860366Y-93874697D01*
X150919258Y-94094488D01*
X150919261Y-94094497D01*
X151015431Y-94300732D01*
X151015432Y-94300734D01*
X151145954Y-94487141D01*
X151306858Y-94648045D01*
X151306861Y-94648047D01*
X151493266Y-94778568D01*
X151699504Y-94874739D01*
X151919308Y-94933635D01*
X152081230Y-94947801D01*
X152145998Y-94953468D01*
X152146000Y-94953468D01*
X152146002Y-94953468D01*
X152202673Y-94948509D01*
X152372692Y-94933635D01*
X152592496Y-94874739D01*
X152798734Y-94778568D01*
X152985139Y-94648047D01*
X153146047Y-94487139D01*
X153276568Y-94300734D01*
X153372739Y-94094496D01*
X153431635Y-93874692D01*
X153451468Y-93648000D01*
X153431635Y-93421308D01*
X153372739Y-93201504D01*
X153276568Y-92995266D01*
X153146047Y-92808861D01*
X153146045Y-92808858D01*
X152985141Y-92647954D01*
X152798734Y-92517432D01*
X152798732Y-92517431D01*
X152592497Y-92421261D01*
X152592488Y-92421258D01*
X152372697Y-92362366D01*
X152372693Y-92362365D01*
X152372692Y-92362365D01*
X152372691Y-92362364D01*
X152372686Y-92362364D01*
X152146002Y-92342532D01*
X152145998Y-92342532D01*
X151919313Y-92362364D01*
X151919302Y-92362366D01*
X151699511Y-92421258D01*
X151699502Y-92421261D01*
X151493267Y-92517431D01*
X151493265Y-92517432D01*
X151306858Y-92647954D01*
X151145954Y-92808858D01*
X151015432Y-92995265D01*
X151015431Y-92995267D01*
X150919261Y-93201502D01*
X150919258Y-93201511D01*
X150860366Y-93421302D01*
X150860364Y-93421313D01*
X150840532Y-93647998D01*
X150840532Y-93648001D01*
X139748104Y-93648001D01*
X139786035Y-93593830D01*
X139885903Y-93379663D01*
X139947063Y-93151408D01*
X139967659Y-92916000D01*
X139947063Y-92680592D01*
X139885903Y-92452337D01*
X139786035Y-92238171D01*
X139650495Y-92044599D01*
X139650494Y-92044597D01*
X139483402Y-91877506D01*
X139483396Y-91877501D01*
X139297842Y-91747575D01*
X139254217Y-91692998D01*
X139247023Y-91623500D01*
X139278546Y-91561145D01*
X139297842Y-91544425D01*
X139397361Y-91474741D01*
X139483401Y-91414495D01*
X139650495Y-91247401D01*
X139786035Y-91053830D01*
X139885903Y-90839663D01*
X139947063Y-90611408D01*
X139967659Y-90376000D01*
X139956460Y-90248001D01*
X150840532Y-90248001D01*
X150860364Y-90474686D01*
X150860366Y-90474697D01*
X150919258Y-90694488D01*
X150919261Y-90694497D01*
X151015431Y-90900732D01*
X151015432Y-90900734D01*
X151145954Y-91087141D01*
X151306858Y-91248045D01*
X151306861Y-91248047D01*
X151493266Y-91378568D01*
X151699504Y-91474739D01*
X151919308Y-91533635D01*
X152081230Y-91547801D01*
X152145998Y-91553468D01*
X152146000Y-91553468D01*
X152146002Y-91553468D01*
X152202673Y-91548509D01*
X152372692Y-91533635D01*
X152592496Y-91474739D01*
X152798734Y-91378568D01*
X152985139Y-91248047D01*
X153146047Y-91087139D01*
X153276568Y-90900734D01*
X153372739Y-90694496D01*
X153431635Y-90474692D01*
X153451468Y-90248000D01*
X153431635Y-90021308D01*
X153372739Y-89801504D01*
X153276568Y-89595266D01*
X153146047Y-89408861D01*
X153146045Y-89408858D01*
X152985141Y-89247954D01*
X152798734Y-89117432D01*
X152798732Y-89117431D01*
X152592497Y-89021261D01*
X152592488Y-89021258D01*
X152372697Y-88962366D01*
X152372693Y-88962365D01*
X152372692Y-88962365D01*
X152372691Y-88962364D01*
X152372686Y-88962364D01*
X152146002Y-88942532D01*
X152145998Y-88942532D01*
X151919313Y-88962364D01*
X151919302Y-88962366D01*
X151699511Y-89021258D01*
X151699502Y-89021261D01*
X151493267Y-89117431D01*
X151493265Y-89117432D01*
X151306858Y-89247954D01*
X151145954Y-89408858D01*
X151015432Y-89595265D01*
X151015431Y-89595267D01*
X150919261Y-89801502D01*
X150919258Y-89801511D01*
X150860366Y-90021302D01*
X150860364Y-90021313D01*
X150840532Y-90247998D01*
X150840532Y-90248001D01*
X139956460Y-90248001D01*
X139947063Y-90140592D01*
X139885903Y-89912337D01*
X139786035Y-89698171D01*
X139713980Y-89595266D01*
X139650496Y-89504600D01*
X139650495Y-89504599D01*
X139528567Y-89382671D01*
X139495084Y-89321351D01*
X139500068Y-89251659D01*
X139541939Y-89195725D01*
X139572915Y-89178810D01*
X139704331Y-89129796D01*
X139819546Y-89043546D01*
X139905796Y-88928331D01*
X139956091Y-88793483D01*
X139962500Y-88733873D01*
X139962499Y-86938128D01*
X139956091Y-86878517D01*
X139905796Y-86743669D01*
X139905795Y-86743668D01*
X139905793Y-86743664D01*
X139819547Y-86628455D01*
X139819544Y-86628452D01*
X139704335Y-86542206D01*
X139704328Y-86542202D01*
X139572917Y-86493189D01*
X139516983Y-86451318D01*
X139492566Y-86385853D01*
X139507418Y-86317580D01*
X139528563Y-86289332D01*
X139650495Y-86167401D01*
X139786035Y-85973830D01*
X139885903Y-85759663D01*
X139947063Y-85531408D01*
X139967659Y-85296000D01*
X139947063Y-85060592D01*
X139895320Y-84867482D01*
X139885905Y-84832344D01*
X139885904Y-84832343D01*
X139885903Y-84832337D01*
X139874494Y-84807870D01*
X163522500Y-84807870D01*
X163522501Y-84807876D01*
X163528908Y-84867483D01*
X163579202Y-85002328D01*
X163579206Y-85002335D01*
X163665452Y-85117544D01*
X163665455Y-85117547D01*
X163780664Y-85203793D01*
X163780671Y-85203797D01*
X163915517Y-85254091D01*
X163915516Y-85254091D01*
X163922444Y-85254835D01*
X163975127Y-85260500D01*
X167070872Y-85260499D01*
X167130483Y-85254091D01*
X167265331Y-85203796D01*
X167380546Y-85117546D01*
X167466796Y-85002331D01*
X167517091Y-84867483D01*
X167523500Y-84807873D01*
X167523500Y-84378097D01*
X189362500Y-84378097D01*
X189399446Y-84611368D01*
X189472433Y-84835996D01*
X189488477Y-84867483D01*
X189579657Y-85046433D01*
X189718483Y-85237510D01*
X189885490Y-85404517D01*
X190076567Y-85543343D01*
X190175991Y-85594002D01*
X190287003Y-85650566D01*
X190287005Y-85650566D01*
X190287008Y-85650568D01*
X190407412Y-85689689D01*
X190511631Y-85723553D01*
X190744903Y-85760500D01*
X190744908Y-85760500D01*
X190981097Y-85760500D01*
X191214368Y-85723553D01*
X191438992Y-85650568D01*
X191649433Y-85543343D01*
X191840510Y-85404517D01*
X192007517Y-85237510D01*
X192146343Y-85046433D01*
X192253568Y-84835992D01*
X192326553Y-84611368D01*
X192346198Y-84487335D01*
X192363500Y-84378097D01*
X192363500Y-84292870D01*
X197321500Y-84292870D01*
X197321501Y-84292876D01*
X197327908Y-84352483D01*
X197378202Y-84487328D01*
X197378206Y-84487335D01*
X197464452Y-84602544D01*
X197464455Y-84602547D01*
X197579664Y-84688793D01*
X197579671Y-84688797D01*
X197714517Y-84739091D01*
X197714516Y-84739091D01*
X197721444Y-84739835D01*
X197774127Y-84745500D01*
X198719872Y-84745499D01*
X198779483Y-84739091D01*
X198914331Y-84688796D01*
X199029546Y-84602546D01*
X199115796Y-84487331D01*
X199166091Y-84352483D01*
X199172500Y-84292873D01*
X199172499Y-83347128D01*
X199166091Y-83287517D01*
X199140783Y-83219664D01*
X199115797Y-83152671D01*
X199115793Y-83152664D01*
X199029547Y-83037455D01*
X199029544Y-83037452D01*
X198914335Y-82951206D01*
X198914328Y-82951202D01*
X198779482Y-82900908D01*
X198779483Y-82900908D01*
X198719883Y-82894501D01*
X198719881Y-82894500D01*
X198719873Y-82894500D01*
X198719864Y-82894500D01*
X197774129Y-82894500D01*
X197774123Y-82894501D01*
X197714516Y-82900908D01*
X197579671Y-82951202D01*
X197579664Y-82951206D01*
X197464455Y-83037452D01*
X197464452Y-83037455D01*
X197378206Y-83152664D01*
X197378202Y-83152671D01*
X197327908Y-83287517D01*
X197321501Y-83347116D01*
X197321501Y-83347123D01*
X197321500Y-83347135D01*
X197321500Y-84292870D01*
X192363500Y-84292870D01*
X192363500Y-83141902D01*
X192326553Y-82908631D01*
X192262705Y-82712129D01*
X192253568Y-82684008D01*
X192253566Y-82684005D01*
X192253566Y-82684003D01*
X192168814Y-82517669D01*
X192146343Y-82473567D01*
X192007517Y-82282490D01*
X191840510Y-82115483D01*
X191649433Y-81976657D01*
X191438996Y-81869433D01*
X191214368Y-81796446D01*
X190981097Y-81759500D01*
X190981092Y-81759500D01*
X190744908Y-81759500D01*
X190744903Y-81759500D01*
X190511631Y-81796446D01*
X190287003Y-81869433D01*
X190076566Y-81976657D01*
X189974931Y-82050500D01*
X189885490Y-82115483D01*
X189885488Y-82115485D01*
X189885487Y-82115485D01*
X189718485Y-82282487D01*
X189718485Y-82282488D01*
X189718483Y-82282490D01*
X189693987Y-82316206D01*
X189579657Y-82473566D01*
X189472433Y-82684003D01*
X189399446Y-82908631D01*
X189362500Y-83141902D01*
X189362500Y-84378097D01*
X167523500Y-84378097D01*
X167523499Y-82712128D01*
X167517091Y-82652517D01*
X167466796Y-82517669D01*
X167466795Y-82517668D01*
X167466793Y-82517664D01*
X167380547Y-82402455D01*
X167380544Y-82402452D01*
X167265335Y-82316206D01*
X167265328Y-82316202D01*
X167130482Y-82265908D01*
X167130483Y-82265908D01*
X167070883Y-82259501D01*
X167070881Y-82259500D01*
X167070873Y-82259500D01*
X167070864Y-82259500D01*
X163975129Y-82259500D01*
X163975123Y-82259501D01*
X163915516Y-82265908D01*
X163780671Y-82316202D01*
X163780664Y-82316206D01*
X163665455Y-82402452D01*
X163665452Y-82402455D01*
X163579206Y-82517664D01*
X163579202Y-82517671D01*
X163528908Y-82652517D01*
X163525523Y-82684008D01*
X163522501Y-82712123D01*
X163522500Y-82712135D01*
X163522500Y-84807870D01*
X139874494Y-84807870D01*
X139786035Y-84618171D01*
X139775095Y-84602546D01*
X139650494Y-84424597D01*
X139483402Y-84257506D01*
X139483396Y-84257501D01*
X139297842Y-84127575D01*
X139254217Y-84072998D01*
X139247023Y-84003500D01*
X139278546Y-83941145D01*
X139297842Y-83924425D01*
X139320026Y-83908891D01*
X139483401Y-83794495D01*
X139650495Y-83627401D01*
X139786035Y-83433830D01*
X139885903Y-83219663D01*
X139947063Y-82991408D01*
X139967659Y-82756000D01*
X139947063Y-82520592D01*
X139885903Y-82292337D01*
X139786035Y-82078171D01*
X139766659Y-82050498D01*
X139650494Y-81884597D01*
X139483402Y-81717506D01*
X139483396Y-81717501D01*
X139297842Y-81587575D01*
X139254217Y-81532998D01*
X139247023Y-81463500D01*
X139278546Y-81401145D01*
X139297842Y-81384425D01*
X139320026Y-81368891D01*
X139483401Y-81254495D01*
X139650495Y-81087401D01*
X139786035Y-80893830D01*
X139885903Y-80679663D01*
X139947063Y-80451408D01*
X139967659Y-80216000D01*
X139947063Y-79980592D01*
X139885903Y-79752337D01*
X139786035Y-79538171D01*
X139764678Y-79507669D01*
X139650494Y-79344597D01*
X139483402Y-79177506D01*
X139483396Y-79177501D01*
X139297842Y-79047575D01*
X139254217Y-78992998D01*
X139247023Y-78923500D01*
X139278546Y-78861145D01*
X139297842Y-78844425D01*
X139391495Y-78778848D01*
X139483401Y-78714495D01*
X139650495Y-78547401D01*
X139786035Y-78353830D01*
X139885903Y-78139663D01*
X139893849Y-78110006D01*
X146676700Y-78110006D01*
X146695864Y-78341297D01*
X146695866Y-78341308D01*
X146752842Y-78566300D01*
X146846075Y-78778848D01*
X146973016Y-78973147D01*
X146973019Y-78973151D01*
X146973021Y-78973153D01*
X147067803Y-79076114D01*
X147098724Y-79138767D01*
X147090864Y-79208193D01*
X147046716Y-79262348D01*
X147019906Y-79276277D01*
X146939669Y-79306203D01*
X146939664Y-79306206D01*
X146824455Y-79392452D01*
X146824452Y-79392455D01*
X146738206Y-79507664D01*
X146738202Y-79507671D01*
X146687908Y-79642517D01*
X146681501Y-79702116D01*
X146681501Y-79702123D01*
X146681500Y-79702135D01*
X146681500Y-81597870D01*
X146681501Y-81597876D01*
X146687908Y-81657483D01*
X146738202Y-81792328D01*
X146738206Y-81792335D01*
X146824452Y-81907544D01*
X146824455Y-81907547D01*
X146939664Y-81993793D01*
X146939671Y-81993797D01*
X147074517Y-82044091D01*
X147074516Y-82044091D01*
X147081444Y-82044835D01*
X147134127Y-82050500D01*
X149029872Y-82050499D01*
X149089483Y-82044091D01*
X149224331Y-81993796D01*
X149339546Y-81907546D01*
X149425796Y-81792331D01*
X149476091Y-81657483D01*
X149482500Y-81597873D01*
X149482499Y-79702128D01*
X149476091Y-79642517D01*
X149437172Y-79538171D01*
X149425797Y-79507671D01*
X149425793Y-79507664D01*
X149339547Y-79392455D01*
X149339544Y-79392452D01*
X149224335Y-79306206D01*
X149224328Y-79306202D01*
X149144094Y-79276277D01*
X149088160Y-79234406D01*
X149063743Y-79168941D01*
X149078595Y-79100668D01*
X149096190Y-79076121D01*
X149190979Y-78973153D01*
X149317924Y-78778849D01*
X149411157Y-78566300D01*
X149468134Y-78341305D01*
X149483939Y-78150566D01*
X149487300Y-78110006D01*
X149487300Y-78109993D01*
X149468135Y-77878702D01*
X149468133Y-77878691D01*
X149411157Y-77653699D01*
X149317924Y-77441151D01*
X149190983Y-77246852D01*
X149190980Y-77246849D01*
X149190979Y-77246847D01*
X149033784Y-77076087D01*
X149033779Y-77076083D01*
X149033777Y-77076081D01*
X148850634Y-76933535D01*
X148850628Y-76933531D01*
X148646504Y-76823064D01*
X148646495Y-76823061D01*
X148426984Y-76747702D01*
X148255282Y-76719050D01*
X148198049Y-76709500D01*
X147965951Y-76709500D01*
X147920164Y-76717140D01*
X147737015Y-76747702D01*
X147517504Y-76823061D01*
X147517495Y-76823064D01*
X147313371Y-76933531D01*
X147313365Y-76933535D01*
X147130222Y-77076081D01*
X147130219Y-77076084D01*
X146973016Y-77246852D01*
X146846075Y-77441151D01*
X146752842Y-77653699D01*
X146695866Y-77878691D01*
X146695864Y-77878702D01*
X146676700Y-78109993D01*
X146676700Y-78110006D01*
X139893849Y-78110006D01*
X139947063Y-77911408D01*
X139967659Y-77676000D01*
X139947063Y-77440592D01*
X139885903Y-77212337D01*
X139786035Y-76998171D01*
X139672479Y-76835996D01*
X139650496Y-76804600D01*
X139593598Y-76747702D01*
X139528567Y-76682671D01*
X139495084Y-76621351D01*
X139500068Y-76551659D01*
X139541939Y-76495725D01*
X139572915Y-76478810D01*
X139704331Y-76429796D01*
X139773392Y-76378097D01*
X163522500Y-76378097D01*
X163559446Y-76611368D01*
X163632433Y-76835996D01*
X163715065Y-76998169D01*
X163739657Y-77046433D01*
X163878483Y-77237510D01*
X164045490Y-77404517D01*
X164236567Y-77543343D01*
X164335991Y-77594002D01*
X164447003Y-77650566D01*
X164447005Y-77650566D01*
X164447008Y-77650568D01*
X164567412Y-77689689D01*
X164671631Y-77723553D01*
X164904903Y-77760500D01*
X164904908Y-77760500D01*
X166141097Y-77760500D01*
X166374368Y-77723553D01*
X166598992Y-77650568D01*
X166809433Y-77543343D01*
X167000510Y-77404517D01*
X167167517Y-77237510D01*
X167306343Y-77046433D01*
X167392114Y-76878097D01*
X184322500Y-76878097D01*
X184359446Y-77111368D01*
X184432433Y-77335996D01*
X184467347Y-77404517D01*
X184539657Y-77546433D01*
X184678483Y-77737510D01*
X184845490Y-77904517D01*
X185036567Y-78043343D01*
X185135991Y-78094002D01*
X185247003Y-78150566D01*
X185247005Y-78150566D01*
X185247008Y-78150568D01*
X185367412Y-78189689D01*
X185471631Y-78223553D01*
X185704903Y-78260500D01*
X185704908Y-78260500D01*
X185941097Y-78260500D01*
X186174368Y-78223553D01*
X186398992Y-78150568D01*
X186609433Y-78043343D01*
X186800510Y-77904517D01*
X186967517Y-77737510D01*
X187106343Y-77546433D01*
X187213568Y-77335992D01*
X187286553Y-77111368D01*
X187292141Y-77076087D01*
X187323500Y-76878097D01*
X187323500Y-75641902D01*
X187286553Y-75408631D01*
X187213566Y-75184003D01*
X187106342Y-74973566D01*
X186967517Y-74782490D01*
X186800510Y-74615483D01*
X186609433Y-74476657D01*
X186598874Y-74471277D01*
X186398996Y-74369433D01*
X186174368Y-74296446D01*
X185941097Y-74259500D01*
X185941092Y-74259500D01*
X185704908Y-74259500D01*
X185704903Y-74259500D01*
X185471631Y-74296446D01*
X185247003Y-74369433D01*
X185036566Y-74476657D01*
X184927550Y-74555862D01*
X184845490Y-74615483D01*
X184845488Y-74615485D01*
X184845487Y-74615485D01*
X184678485Y-74782487D01*
X184678485Y-74782488D01*
X184678483Y-74782490D01*
X184668343Y-74796447D01*
X184539657Y-74973566D01*
X184432433Y-75184003D01*
X184359446Y-75408631D01*
X184322500Y-75641902D01*
X184322500Y-76878097D01*
X167392114Y-76878097D01*
X167413568Y-76835992D01*
X167486553Y-76611368D01*
X167496010Y-76551659D01*
X167523500Y-76378097D01*
X167523500Y-76141902D01*
X167486553Y-75908631D01*
X167413566Y-75684003D01*
X167306342Y-75473566D01*
X167167517Y-75282490D01*
X167000510Y-75115483D01*
X166809433Y-74976657D01*
X166803367Y-74973566D01*
X166598996Y-74869433D01*
X166374368Y-74796446D01*
X166141097Y-74759500D01*
X166141092Y-74759500D01*
X164904908Y-74759500D01*
X164904903Y-74759500D01*
X164671631Y-74796446D01*
X164447003Y-74869433D01*
X164236566Y-74976657D01*
X164127550Y-75055862D01*
X164045490Y-75115483D01*
X164045488Y-75115485D01*
X164045487Y-75115485D01*
X163878485Y-75282487D01*
X163878485Y-75282488D01*
X163878483Y-75282490D01*
X163818862Y-75364550D01*
X163739657Y-75473566D01*
X163632433Y-75684003D01*
X163559446Y-75908631D01*
X163522500Y-76141902D01*
X163522500Y-76378097D01*
X139773392Y-76378097D01*
X139819546Y-76343546D01*
X139905796Y-76228331D01*
X139956091Y-76093483D01*
X139962500Y-76033873D01*
X139962499Y-74238128D01*
X139956091Y-74178517D01*
X139955748Y-74177598D01*
X139905797Y-74043671D01*
X139905793Y-74043664D01*
X139819547Y-73928455D01*
X139819544Y-73928452D01*
X139704335Y-73842206D01*
X139704328Y-73842202D01*
X139572917Y-73793189D01*
X139516983Y-73751318D01*
X139492566Y-73685853D01*
X139507418Y-73617580D01*
X139528563Y-73589332D01*
X139650495Y-73467401D01*
X139786035Y-73273830D01*
X139885903Y-73059663D01*
X139947063Y-72831408D01*
X139967659Y-72596000D01*
X139947063Y-72360592D01*
X139885903Y-72132337D01*
X139786035Y-71918171D01*
X139671565Y-71754689D01*
X139650494Y-71724597D01*
X139483402Y-71557506D01*
X139483396Y-71557501D01*
X139297842Y-71427575D01*
X139254217Y-71372998D01*
X139247023Y-71303500D01*
X139278546Y-71241145D01*
X139297842Y-71224425D01*
X139446976Y-71120000D01*
X148278357Y-71120000D01*
X148298884Y-71341535D01*
X148298885Y-71341537D01*
X148359769Y-71555523D01*
X148359775Y-71555538D01*
X148458938Y-71754683D01*
X148458943Y-71754691D01*
X148593020Y-71932238D01*
X148757437Y-72082123D01*
X148757439Y-72082125D01*
X148946595Y-72199245D01*
X148946596Y-72199245D01*
X148946599Y-72199247D01*
X149154060Y-72279618D01*
X149372757Y-72320500D01*
X149372759Y-72320500D01*
X149595241Y-72320500D01*
X149595243Y-72320500D01*
X149813940Y-72279618D01*
X150021401Y-72199247D01*
X150210562Y-72082124D01*
X150374981Y-71932236D01*
X150509058Y-71754689D01*
X150608229Y-71555528D01*
X150669115Y-71341536D01*
X150689643Y-71120000D01*
X155898357Y-71120000D01*
X155918884Y-71341535D01*
X155918885Y-71341537D01*
X155979769Y-71555523D01*
X155979775Y-71555538D01*
X156078938Y-71754683D01*
X156078943Y-71754691D01*
X156213020Y-71932238D01*
X156377437Y-72082123D01*
X156377439Y-72082125D01*
X156566595Y-72199245D01*
X156566596Y-72199245D01*
X156566599Y-72199247D01*
X156774060Y-72279618D01*
X156992757Y-72320500D01*
X156992759Y-72320500D01*
X157215241Y-72320500D01*
X157215243Y-72320500D01*
X157433940Y-72279618D01*
X157641401Y-72199247D01*
X157830562Y-72082124D01*
X157994981Y-71932236D01*
X158129058Y-71754689D01*
X158228229Y-71555528D01*
X158289115Y-71341536D01*
X158309643Y-71120000D01*
X158307279Y-71094493D01*
X158289115Y-70898464D01*
X158289114Y-70898462D01*
X158242272Y-70733830D01*
X158228229Y-70684472D01*
X158146164Y-70519664D01*
X158129061Y-70485316D01*
X158129056Y-70485308D01*
X157994979Y-70307761D01*
X157830562Y-70157876D01*
X157830560Y-70157874D01*
X157641404Y-70040754D01*
X157641398Y-70040752D01*
X157433940Y-69960382D01*
X157215243Y-69919500D01*
X156992757Y-69919500D01*
X156774060Y-69960382D01*
X156642864Y-70011207D01*
X156566601Y-70040752D01*
X156566595Y-70040754D01*
X156377439Y-70157874D01*
X156377437Y-70157876D01*
X156213020Y-70307761D01*
X156078943Y-70485308D01*
X156078938Y-70485316D01*
X155979775Y-70684461D01*
X155979769Y-70684476D01*
X155918885Y-70898462D01*
X155918884Y-70898464D01*
X155898357Y-71119999D01*
X155898357Y-71120000D01*
X150689643Y-71120000D01*
X150687279Y-71094493D01*
X150669115Y-70898464D01*
X150669114Y-70898462D01*
X150622272Y-70733830D01*
X150608229Y-70684472D01*
X150526164Y-70519664D01*
X150509061Y-70485316D01*
X150509056Y-70485308D01*
X150374979Y-70307761D01*
X150210562Y-70157876D01*
X150210560Y-70157874D01*
X150021404Y-70040754D01*
X150021398Y-70040752D01*
X149813940Y-69960382D01*
X149595243Y-69919500D01*
X149372757Y-69919500D01*
X149154060Y-69960382D01*
X149022864Y-70011207D01*
X148946601Y-70040752D01*
X148946595Y-70040754D01*
X148757439Y-70157874D01*
X148757437Y-70157876D01*
X148593020Y-70307761D01*
X148458943Y-70485308D01*
X148458938Y-70485316D01*
X148359775Y-70684461D01*
X148359769Y-70684476D01*
X148298885Y-70898462D01*
X148298884Y-70898464D01*
X148278357Y-71119999D01*
X148278357Y-71120000D01*
X139446976Y-71120000D01*
X139483401Y-71094495D01*
X139650495Y-70927401D01*
X139786035Y-70733830D01*
X139885903Y-70519663D01*
X139947063Y-70291408D01*
X139967659Y-70056000D01*
X139947063Y-69820592D01*
X139885903Y-69592337D01*
X139786035Y-69378171D01*
X139747301Y-69322852D01*
X139650494Y-69184597D01*
X139483402Y-69017506D01*
X139483395Y-69017501D01*
X139472018Y-69009535D01*
X139444521Y-68990281D01*
X139289834Y-68881967D01*
X139289830Y-68881965D01*
X139289828Y-68881964D01*
X139075663Y-68782097D01*
X139075659Y-68782096D01*
X139075655Y-68782094D01*
X138847413Y-68720938D01*
X138847403Y-68720936D01*
X138612001Y-68700341D01*
X138611999Y-68700341D01*
X138376596Y-68720936D01*
X138376586Y-68720938D01*
X138148344Y-68782094D01*
X138148335Y-68782098D01*
X137934171Y-68881964D01*
X137934169Y-68881965D01*
X137740597Y-69017505D01*
X137573505Y-69184597D01*
X137437965Y-69378169D01*
X137437964Y-69378171D01*
X137338098Y-69592335D01*
X137338094Y-69592344D01*
X137276938Y-69820586D01*
X137276936Y-69820596D01*
X137256341Y-70055999D01*
X137256341Y-70056000D01*
X137276936Y-70291403D01*
X137276938Y-70291413D01*
X137338094Y-70519655D01*
X137338096Y-70519659D01*
X137338097Y-70519663D01*
X137395284Y-70642300D01*
X137437965Y-70733830D01*
X137437967Y-70733834D01*
X137573501Y-70927395D01*
X137573506Y-70927402D01*
X137740597Y-71094493D01*
X137740603Y-71094498D01*
X137926158Y-71224425D01*
X137969783Y-71279002D01*
X137976977Y-71348500D01*
X137945454Y-71410855D01*
X137926158Y-71427575D01*
X137740597Y-71557505D01*
X137573505Y-71724597D01*
X137437965Y-71918169D01*
X137437964Y-71918171D01*
X137338098Y-72132335D01*
X137338094Y-72132344D01*
X137276938Y-72360586D01*
X137276936Y-72360596D01*
X137256341Y-72595999D01*
X137256341Y-72596000D01*
X137276936Y-72831403D01*
X137276938Y-72831413D01*
X137338094Y-73059655D01*
X137338096Y-73059659D01*
X137338097Y-73059663D01*
X137410997Y-73215997D01*
X137437965Y-73273830D01*
X137437967Y-73273834D01*
X137546281Y-73428521D01*
X137573501Y-73467396D01*
X137573506Y-73467402D01*
X137695430Y-73589326D01*
X137728915Y-73650649D01*
X137723931Y-73720341D01*
X137682059Y-73776274D01*
X137651083Y-73793189D01*
X137519669Y-73842203D01*
X137519664Y-73842206D01*
X137404455Y-73928452D01*
X137404452Y-73928455D01*
X137318206Y-74043664D01*
X137318202Y-74043671D01*
X137267908Y-74178517D01*
X137261501Y-74238116D01*
X137261501Y-74238123D01*
X137261500Y-74238135D01*
X137261500Y-76033870D01*
X137261501Y-76033876D01*
X137267908Y-76093483D01*
X137318202Y-76228328D01*
X137318206Y-76228335D01*
X137404452Y-76343544D01*
X137404455Y-76343547D01*
X137519664Y-76429793D01*
X137519671Y-76429797D01*
X137651081Y-76478810D01*
X137707015Y-76520681D01*
X137731432Y-76586145D01*
X137716580Y-76654418D01*
X137695430Y-76682673D01*
X137573503Y-76804600D01*
X137437965Y-76998169D01*
X137437964Y-76998171D01*
X137338098Y-77212335D01*
X137338094Y-77212344D01*
X137276938Y-77440586D01*
X137276936Y-77440596D01*
X137256341Y-77675999D01*
X137256341Y-77676000D01*
X137276936Y-77911403D01*
X137276938Y-77911413D01*
X137338094Y-78139655D01*
X137338096Y-78139659D01*
X137338097Y-78139663D01*
X137432126Y-78341308D01*
X137437965Y-78353830D01*
X137437967Y-78353834D01*
X137573501Y-78547395D01*
X137573506Y-78547402D01*
X137740597Y-78714493D01*
X137740603Y-78714498D01*
X137926158Y-78844425D01*
X137969783Y-78899002D01*
X137976977Y-78968500D01*
X137945454Y-79030855D01*
X137926158Y-79047575D01*
X137740597Y-79177505D01*
X137573505Y-79344597D01*
X137437965Y-79538169D01*
X137437964Y-79538171D01*
X137338098Y-79752335D01*
X137338094Y-79752344D01*
X137276938Y-79980586D01*
X137276936Y-79980596D01*
X137256341Y-80215999D01*
X137256341Y-80216000D01*
X137276936Y-80451403D01*
X137276938Y-80451413D01*
X137338094Y-80679655D01*
X137338096Y-80679659D01*
X137338097Y-80679663D01*
X137437965Y-80893830D01*
X137437967Y-80893834D01*
X137573501Y-81087395D01*
X137573506Y-81087402D01*
X137740597Y-81254493D01*
X137740603Y-81254498D01*
X137926158Y-81384425D01*
X137969783Y-81439002D01*
X137976977Y-81508500D01*
X137945454Y-81570855D01*
X137926158Y-81587575D01*
X137740597Y-81717505D01*
X137573505Y-81884597D01*
X137437965Y-82078169D01*
X137437964Y-82078171D01*
X137338098Y-82292335D01*
X137338094Y-82292344D01*
X137276938Y-82520586D01*
X137276936Y-82520596D01*
X137256341Y-82755999D01*
X137256341Y-82756000D01*
X137276936Y-82991403D01*
X137276938Y-82991413D01*
X137338094Y-83219655D01*
X137338096Y-83219659D01*
X137338097Y-83219663D01*
X137437965Y-83433830D01*
X137437967Y-83433834D01*
X137573501Y-83627395D01*
X137573506Y-83627402D01*
X137740597Y-83794493D01*
X137740603Y-83794498D01*
X137926158Y-83924425D01*
X137969783Y-83979002D01*
X137976977Y-84048500D01*
X137945454Y-84110855D01*
X137926158Y-84127575D01*
X137740597Y-84257505D01*
X137573505Y-84424597D01*
X137437965Y-84618169D01*
X137437964Y-84618171D01*
X137338098Y-84832335D01*
X137338094Y-84832344D01*
X137276938Y-85060586D01*
X137276936Y-85060596D01*
X137256341Y-85295999D01*
X137256341Y-85296000D01*
X137276936Y-85531403D01*
X137276938Y-85531413D01*
X137338094Y-85759655D01*
X137338096Y-85759659D01*
X137338097Y-85759663D01*
X137437965Y-85973830D01*
X137437967Y-85973834D01*
X137546281Y-86128521D01*
X137573501Y-86167396D01*
X137573506Y-86167402D01*
X137695430Y-86289326D01*
X137728915Y-86350649D01*
X137723931Y-86420341D01*
X137682059Y-86476274D01*
X137651083Y-86493189D01*
X137519669Y-86542203D01*
X137519664Y-86542206D01*
X137404455Y-86628452D01*
X137404452Y-86628455D01*
X137318206Y-86743664D01*
X137318202Y-86743671D01*
X137267908Y-86878517D01*
X137261501Y-86938116D01*
X137261501Y-86938123D01*
X137261500Y-86938135D01*
X137261500Y-88733870D01*
X137261501Y-88733876D01*
X137267908Y-88793483D01*
X137318202Y-88928328D01*
X137318206Y-88928335D01*
X137404452Y-89043544D01*
X137404455Y-89043547D01*
X137519664Y-89129793D01*
X137519671Y-89129797D01*
X137651081Y-89178810D01*
X137707015Y-89220681D01*
X137731432Y-89286145D01*
X137716580Y-89354418D01*
X137695430Y-89382673D01*
X137573503Y-89504600D01*
X137437965Y-89698169D01*
X137437964Y-89698171D01*
X137338098Y-89912335D01*
X137338094Y-89912344D01*
X137276938Y-90140586D01*
X137276936Y-90140596D01*
X137256341Y-90375999D01*
X137256341Y-90376000D01*
X137276936Y-90611403D01*
X137276938Y-90611413D01*
X137338094Y-90839655D01*
X137338096Y-90839659D01*
X137338097Y-90839663D01*
X137366574Y-90900732D01*
X137437965Y-91053830D01*
X137437967Y-91053834D01*
X137573501Y-91247395D01*
X137573506Y-91247402D01*
X137740597Y-91414493D01*
X137740603Y-91414498D01*
X137926158Y-91544425D01*
X137969783Y-91599002D01*
X137976977Y-91668500D01*
X137945454Y-91730855D01*
X137926158Y-91747575D01*
X137740597Y-91877505D01*
X137573505Y-92044597D01*
X137437965Y-92238169D01*
X137437964Y-92238171D01*
X137338098Y-92452335D01*
X137338094Y-92452344D01*
X137276938Y-92680586D01*
X137276936Y-92680596D01*
X137256341Y-92915999D01*
X137256341Y-92916000D01*
X137276936Y-93151403D01*
X137276938Y-93151413D01*
X137338094Y-93379655D01*
X137338096Y-93379659D01*
X137338097Y-93379663D01*
X137357519Y-93421313D01*
X137437965Y-93593830D01*
X137437967Y-93593834D01*
X137573501Y-93787395D01*
X137573506Y-93787402D01*
X137740597Y-93954493D01*
X137740603Y-93954498D01*
X137926158Y-94084425D01*
X137969783Y-94139002D01*
X137976977Y-94208500D01*
X137945454Y-94270855D01*
X137926158Y-94287575D01*
X137740597Y-94417505D01*
X137573505Y-94584597D01*
X137437965Y-94778169D01*
X137437964Y-94778171D01*
X137338098Y-94992335D01*
X137338094Y-94992344D01*
X137276938Y-95220586D01*
X137276936Y-95220596D01*
X137256341Y-95455999D01*
X137256341Y-95456000D01*
X137276936Y-95691403D01*
X137276938Y-95691413D01*
X137338094Y-95919655D01*
X137338096Y-95919659D01*
X137338097Y-95919663D01*
X137437965Y-96133830D01*
X137437967Y-96133834D01*
X137573501Y-96327395D01*
X137573506Y-96327402D01*
X137740597Y-96494493D01*
X137740603Y-96494498D01*
X137926158Y-96624425D01*
X137969783Y-96679002D01*
X137976977Y-96748500D01*
X137945454Y-96810855D01*
X137926158Y-96827575D01*
X137740597Y-96957505D01*
X137573505Y-97124597D01*
X137437965Y-97318169D01*
X137437964Y-97318171D01*
X137338098Y-97532335D01*
X137338094Y-97532344D01*
X137276938Y-97760586D01*
X137276936Y-97760596D01*
X137256341Y-97995999D01*
X137256341Y-97996000D01*
X137276936Y-98231403D01*
X137276938Y-98231413D01*
X137338094Y-98459655D01*
X137338096Y-98459659D01*
X137338097Y-98459663D01*
X137435946Y-98669500D01*
X137437965Y-98673830D01*
X137437967Y-98673834D01*
X137474639Y-98726206D01*
X137573501Y-98867396D01*
X137573506Y-98867402D01*
X137695430Y-98989326D01*
X137728915Y-99050649D01*
X137723931Y-99120341D01*
X137682059Y-99176274D01*
X137651083Y-99193189D01*
X137519669Y-99242203D01*
X137519664Y-99242206D01*
X137404455Y-99328452D01*
X137404452Y-99328455D01*
X137318206Y-99443664D01*
X137318202Y-99443671D01*
X137267908Y-99578517D01*
X137261501Y-99638116D01*
X137261501Y-99638123D01*
X137261500Y-99638135D01*
X137261500Y-101433870D01*
X137261501Y-101433876D01*
X137267908Y-101493483D01*
X137318202Y-101628328D01*
X137318206Y-101628335D01*
X137404452Y-101743544D01*
X137404455Y-101743547D01*
X137519664Y-101829793D01*
X137519671Y-101829797D01*
X137651081Y-101878810D01*
X137707015Y-101920681D01*
X137731432Y-101986145D01*
X137716580Y-102054418D01*
X137695430Y-102082673D01*
X137573503Y-102204600D01*
X137437965Y-102398169D01*
X137437964Y-102398171D01*
X137338098Y-102612335D01*
X137338094Y-102612344D01*
X137276938Y-102840586D01*
X137276936Y-102840596D01*
X137256341Y-103075999D01*
X137256341Y-103076000D01*
X137276936Y-103311403D01*
X137276938Y-103311413D01*
X137338094Y-103539655D01*
X137338096Y-103539659D01*
X137338097Y-103539663D01*
X137437965Y-103753830D01*
X137437967Y-103753834D01*
X137573501Y-103947395D01*
X137573506Y-103947402D01*
X137740597Y-104114493D01*
X137740603Y-104114498D01*
X137926158Y-104244425D01*
X137969783Y-104299002D01*
X137976977Y-104368500D01*
X137945454Y-104430855D01*
X137926158Y-104447575D01*
X137740597Y-104577505D01*
X137573505Y-104744597D01*
X137437965Y-104938169D01*
X137437964Y-104938171D01*
X137338098Y-105152335D01*
X137338094Y-105152344D01*
X137276938Y-105380586D01*
X137276936Y-105380596D01*
X137256341Y-105615999D01*
X137256341Y-105616000D01*
X137276936Y-105851403D01*
X137276938Y-105851413D01*
X137338094Y-106079655D01*
X137338096Y-106079659D01*
X137338097Y-106079663D01*
X137437965Y-106293830D01*
X137437967Y-106293834D01*
X137573501Y-106487395D01*
X137573506Y-106487402D01*
X137740597Y-106654493D01*
X137740603Y-106654498D01*
X137926158Y-106784425D01*
X137969783Y-106839002D01*
X137976977Y-106908500D01*
X137945454Y-106970855D01*
X137926158Y-106987575D01*
X137740597Y-107117505D01*
X137573505Y-107284597D01*
X137437965Y-107478169D01*
X137437964Y-107478171D01*
X137338098Y-107692335D01*
X137338094Y-107692344D01*
X137276938Y-107920586D01*
X137276936Y-107920596D01*
X137256341Y-108155999D01*
X137256341Y-108156000D01*
X137276936Y-108391403D01*
X137276938Y-108391413D01*
X137338094Y-108619655D01*
X137338096Y-108619659D01*
X137338097Y-108619663D01*
X137437965Y-108833830D01*
X137437967Y-108833834D01*
X137573501Y-109027395D01*
X137573506Y-109027402D01*
X137740597Y-109194493D01*
X137740603Y-109194498D01*
X137926158Y-109324425D01*
X137969783Y-109379002D01*
X137976977Y-109448500D01*
X137945454Y-109510855D01*
X137926158Y-109527575D01*
X137740597Y-109657505D01*
X137573505Y-109824597D01*
X137437965Y-110018169D01*
X137437964Y-110018171D01*
X137338098Y-110232335D01*
X137338094Y-110232344D01*
X137276938Y-110460586D01*
X137276936Y-110460596D01*
X137256341Y-110695999D01*
X137256341Y-110696000D01*
X137276936Y-110931403D01*
X137276938Y-110931413D01*
X137338094Y-111159655D01*
X137338096Y-111159659D01*
X137338097Y-111159663D01*
X137437965Y-111373830D01*
X137437967Y-111373834D01*
X137546281Y-111528521D01*
X137573501Y-111567396D01*
X137573506Y-111567402D01*
X137695430Y-111689326D01*
X137728915Y-111750649D01*
X137723931Y-111820341D01*
X137682059Y-111876274D01*
X137651083Y-111893189D01*
X137519669Y-111942203D01*
X137519664Y-111942206D01*
X137404455Y-112028452D01*
X137404452Y-112028455D01*
X137318206Y-112143664D01*
X137318202Y-112143671D01*
X137267908Y-112278517D01*
X137261501Y-112338116D01*
X137261501Y-112338123D01*
X137261500Y-112338135D01*
X137261500Y-114133870D01*
X137261501Y-114133876D01*
X137267908Y-114193483D01*
X137318202Y-114328328D01*
X137318206Y-114328335D01*
X137404452Y-114443544D01*
X137404455Y-114443547D01*
X137519664Y-114529793D01*
X137519671Y-114529797D01*
X137651081Y-114578810D01*
X137707015Y-114620681D01*
X137731432Y-114686145D01*
X137716580Y-114754418D01*
X137695430Y-114782673D01*
X137573503Y-114904600D01*
X137437965Y-115098169D01*
X137437964Y-115098171D01*
X137338098Y-115312335D01*
X137338094Y-115312344D01*
X137276938Y-115540586D01*
X137276936Y-115540596D01*
X137256341Y-115775999D01*
X137256341Y-115776000D01*
X137276936Y-116011403D01*
X137276938Y-116011413D01*
X137338094Y-116239655D01*
X137338096Y-116239659D01*
X137338097Y-116239663D01*
X137437965Y-116453830D01*
X137437967Y-116453834D01*
X137573501Y-116647395D01*
X137573506Y-116647402D01*
X137740597Y-116814493D01*
X137740603Y-116814498D01*
X137926158Y-116944425D01*
X137969783Y-116999002D01*
X137976977Y-117068500D01*
X137945454Y-117130855D01*
X137926158Y-117147575D01*
X137740597Y-117277505D01*
X137573505Y-117444597D01*
X137437965Y-117638169D01*
X137437964Y-117638171D01*
X137338098Y-117852335D01*
X137338094Y-117852344D01*
X137276938Y-118080586D01*
X137276936Y-118080596D01*
X137256341Y-118315999D01*
X137256341Y-118316000D01*
X133597536Y-118316000D01*
X133617659Y-118086000D01*
X133597063Y-117850592D01*
X133535903Y-117622337D01*
X133436035Y-117408171D01*
X133344540Y-117277501D01*
X133300494Y-117214597D01*
X133133402Y-117047506D01*
X133133395Y-117047501D01*
X133131251Y-117046000D01*
X133056518Y-116993671D01*
X132939834Y-116911967D01*
X132939830Y-116911965D01*
X132939828Y-116911964D01*
X132725663Y-116812097D01*
X132725659Y-116812096D01*
X132725655Y-116812094D01*
X132497413Y-116750938D01*
X132497403Y-116750936D01*
X132262001Y-116730341D01*
X132261999Y-116730341D01*
X132026596Y-116750936D01*
X132026586Y-116750938D01*
X131798344Y-116812094D01*
X131798335Y-116812098D01*
X131584171Y-116911964D01*
X131584169Y-116911965D01*
X131390600Y-117047503D01*
X131268673Y-117169430D01*
X131207350Y-117202914D01*
X131137658Y-117197930D01*
X131081725Y-117156058D01*
X131064810Y-117125081D01*
X131015797Y-116993671D01*
X131015793Y-116993664D01*
X130929547Y-116878455D01*
X130929544Y-116878452D01*
X130814335Y-116792206D01*
X130814328Y-116792202D01*
X130679482Y-116741908D01*
X130679483Y-116741908D01*
X130619883Y-116735501D01*
X130619881Y-116735500D01*
X130619873Y-116735500D01*
X130619864Y-116735500D01*
X128824129Y-116735500D01*
X128824123Y-116735501D01*
X128764516Y-116741908D01*
X128629671Y-116792202D01*
X128629664Y-116792206D01*
X128514455Y-116878452D01*
X128514452Y-116878455D01*
X128428206Y-116993664D01*
X128428203Y-116993669D01*
X128379189Y-117125083D01*
X128337317Y-117181016D01*
X128271853Y-117205433D01*
X128203580Y-117190581D01*
X128175326Y-117169430D01*
X128053402Y-117047506D01*
X128053395Y-117047501D01*
X128051251Y-117046000D01*
X127976518Y-116993671D01*
X127859834Y-116911967D01*
X127859830Y-116911965D01*
X127859828Y-116911964D01*
X127645663Y-116812097D01*
X127645659Y-116812096D01*
X127645655Y-116812094D01*
X127417413Y-116750938D01*
X127417403Y-116750936D01*
X127182001Y-116730341D01*
X127181999Y-116730341D01*
X126946596Y-116750936D01*
X126946586Y-116750938D01*
X126718344Y-116812094D01*
X126718335Y-116812098D01*
X126504171Y-116911964D01*
X126504169Y-116911965D01*
X126310597Y-117047505D01*
X126143505Y-117214597D01*
X126007965Y-117408169D01*
X126007964Y-117408171D01*
X125908098Y-117622335D01*
X125908094Y-117622344D01*
X125846938Y-117850586D01*
X125846936Y-117850596D01*
X125826341Y-118085999D01*
X125826341Y-118086000D01*
X122167536Y-118086000D01*
X122167063Y-118080592D01*
X122105903Y-117852337D01*
X122006035Y-117638171D01*
X121870495Y-117444599D01*
X121870494Y-117444597D01*
X121703402Y-117277506D01*
X121703396Y-117277501D01*
X121517842Y-117147575D01*
X121474217Y-117092998D01*
X121467023Y-117023500D01*
X121498546Y-116961145D01*
X121517842Y-116944425D01*
X121564197Y-116911967D01*
X121703401Y-116814495D01*
X121870495Y-116647401D01*
X122006035Y-116453830D01*
X122105903Y-116239663D01*
X122167063Y-116011408D01*
X122187659Y-115776000D01*
X122167063Y-115540592D01*
X122105903Y-115312337D01*
X122006035Y-115098171D01*
X121870495Y-114904599D01*
X121748567Y-114782671D01*
X121715084Y-114721351D01*
X121720068Y-114651659D01*
X121761939Y-114595725D01*
X121792915Y-114578810D01*
X121924331Y-114529796D01*
X122039546Y-114443546D01*
X122125796Y-114328331D01*
X122176091Y-114193483D01*
X122182500Y-114133873D01*
X122182499Y-112338128D01*
X122176091Y-112278517D01*
X122125796Y-112143669D01*
X122125795Y-112143668D01*
X122125793Y-112143664D01*
X122039547Y-112028455D01*
X122039544Y-112028452D01*
X121924335Y-111942206D01*
X121924328Y-111942202D01*
X121792917Y-111893189D01*
X121736983Y-111851318D01*
X121712566Y-111785853D01*
X121727418Y-111717580D01*
X121748563Y-111689332D01*
X121870495Y-111567401D01*
X122006035Y-111373830D01*
X122105903Y-111159663D01*
X122167063Y-110931408D01*
X122187659Y-110696000D01*
X122167063Y-110460592D01*
X122105903Y-110232337D01*
X122006035Y-110018171D01*
X121870495Y-109824599D01*
X121870494Y-109824597D01*
X121703402Y-109657506D01*
X121703396Y-109657501D01*
X121517842Y-109527575D01*
X121474217Y-109472998D01*
X121467023Y-109403500D01*
X121498546Y-109341145D01*
X121517842Y-109324425D01*
X121540026Y-109308891D01*
X121703401Y-109194495D01*
X121870495Y-109027401D01*
X122006035Y-108833830D01*
X122105903Y-108619663D01*
X122167063Y-108391408D01*
X122187659Y-108156000D01*
X122167063Y-107920592D01*
X122105903Y-107692337D01*
X122006035Y-107478171D01*
X121870495Y-107284599D01*
X121870494Y-107284597D01*
X121703402Y-107117506D01*
X121703396Y-107117501D01*
X121517842Y-106987575D01*
X121474217Y-106932998D01*
X121467023Y-106863500D01*
X121498546Y-106801145D01*
X121517842Y-106784425D01*
X121540026Y-106768891D01*
X121703401Y-106654495D01*
X121870495Y-106487401D01*
X122006035Y-106293830D01*
X122105903Y-106079663D01*
X122167063Y-105851408D01*
X122187659Y-105616000D01*
X122167063Y-105380592D01*
X122105903Y-105152337D01*
X122006035Y-104938171D01*
X121870495Y-104744599D01*
X121870494Y-104744597D01*
X121703402Y-104577506D01*
X121703396Y-104577501D01*
X121517842Y-104447575D01*
X121474217Y-104392998D01*
X121467023Y-104323500D01*
X121498546Y-104261145D01*
X121517842Y-104244425D01*
X121540026Y-104228891D01*
X121703401Y-104114495D01*
X121870495Y-103947401D01*
X122006035Y-103753830D01*
X122105903Y-103539663D01*
X122167063Y-103311408D01*
X122187659Y-103076000D01*
X122167063Y-102840592D01*
X122105903Y-102612337D01*
X122006035Y-102398171D01*
X121870495Y-102204599D01*
X121748567Y-102082671D01*
X121715084Y-102021351D01*
X121720068Y-101951659D01*
X121761939Y-101895725D01*
X121792915Y-101878810D01*
X121924331Y-101829796D01*
X122039546Y-101743546D01*
X122125796Y-101628331D01*
X122176091Y-101493483D01*
X122182500Y-101433873D01*
X122182499Y-99638128D01*
X122176091Y-99578517D01*
X122125796Y-99443669D01*
X122125795Y-99443668D01*
X122125793Y-99443664D01*
X122039547Y-99328455D01*
X122039544Y-99328452D01*
X121924335Y-99242206D01*
X121924328Y-99242202D01*
X121792917Y-99193189D01*
X121736983Y-99151318D01*
X121712566Y-99085853D01*
X121727418Y-99017580D01*
X121748563Y-98989332D01*
X121870495Y-98867401D01*
X122006035Y-98673830D01*
X122105903Y-98459663D01*
X122167063Y-98231408D01*
X122187659Y-97996000D01*
X122167063Y-97760592D01*
X122105903Y-97532337D01*
X122006035Y-97318171D01*
X121870495Y-97124599D01*
X121870494Y-97124597D01*
X121703402Y-96957506D01*
X121703396Y-96957501D01*
X121517842Y-96827575D01*
X121474217Y-96772998D01*
X121467023Y-96703500D01*
X121498546Y-96641145D01*
X121517842Y-96624425D01*
X121540026Y-96608891D01*
X121703401Y-96494495D01*
X121870495Y-96327401D01*
X122006035Y-96133830D01*
X122105903Y-95919663D01*
X122167063Y-95691408D01*
X122187659Y-95456000D01*
X122167063Y-95220592D01*
X122105903Y-94992337D01*
X122006035Y-94778171D01*
X121914921Y-94648045D01*
X121870494Y-94584597D01*
X121703402Y-94417506D01*
X121703396Y-94417501D01*
X121517842Y-94287575D01*
X121474217Y-94232998D01*
X121467023Y-94163500D01*
X121498546Y-94101145D01*
X121517842Y-94084425D01*
X121540026Y-94068891D01*
X121703401Y-93954495D01*
X121870495Y-93787401D01*
X122006035Y-93593830D01*
X122105903Y-93379663D01*
X122167063Y-93151408D01*
X122187659Y-92916000D01*
X122167063Y-92680592D01*
X122105903Y-92452337D01*
X122006035Y-92238171D01*
X121870495Y-92044599D01*
X121870494Y-92044597D01*
X121703402Y-91877506D01*
X121703396Y-91877501D01*
X121517842Y-91747575D01*
X121474217Y-91692998D01*
X121467023Y-91623500D01*
X121498546Y-91561145D01*
X121517842Y-91544425D01*
X121617361Y-91474741D01*
X121703401Y-91414495D01*
X121870495Y-91247401D01*
X122006035Y-91053830D01*
X122105903Y-90839663D01*
X122167063Y-90611408D01*
X122187659Y-90376000D01*
X122167063Y-90140592D01*
X122105903Y-89912337D01*
X122006035Y-89698171D01*
X121933980Y-89595266D01*
X121870496Y-89504600D01*
X121870495Y-89504599D01*
X121748567Y-89382671D01*
X121715084Y-89321351D01*
X121720068Y-89251659D01*
X121761939Y-89195725D01*
X121792915Y-89178810D01*
X121924331Y-89129796D01*
X122039546Y-89043546D01*
X122125796Y-88928331D01*
X122176091Y-88793483D01*
X122182500Y-88733873D01*
X122182499Y-86938128D01*
X122176091Y-86878517D01*
X122125796Y-86743669D01*
X122125795Y-86743668D01*
X122125793Y-86743664D01*
X122039547Y-86628455D01*
X122039544Y-86628452D01*
X121924335Y-86542206D01*
X121924328Y-86542202D01*
X121792917Y-86493189D01*
X121736983Y-86451318D01*
X121712566Y-86385853D01*
X121727418Y-86317580D01*
X121748563Y-86289332D01*
X121870495Y-86167401D01*
X122006035Y-85973830D01*
X122105903Y-85759663D01*
X122167063Y-85531408D01*
X122187659Y-85296000D01*
X122167063Y-85060592D01*
X122115320Y-84867482D01*
X122105905Y-84832344D01*
X122105904Y-84832343D01*
X122105903Y-84832337D01*
X122006035Y-84618171D01*
X121995095Y-84602546D01*
X121870494Y-84424597D01*
X121703402Y-84257506D01*
X121703396Y-84257501D01*
X121517842Y-84127575D01*
X121474217Y-84072998D01*
X121467023Y-84003500D01*
X121498546Y-83941145D01*
X121517842Y-83924425D01*
X121540026Y-83908891D01*
X121703401Y-83794495D01*
X121870495Y-83627401D01*
X122006035Y-83433830D01*
X122105903Y-83219663D01*
X122167063Y-82991408D01*
X122187659Y-82756000D01*
X122167063Y-82520592D01*
X122105903Y-82292337D01*
X122006035Y-82078171D01*
X121986659Y-82050498D01*
X121870494Y-81884597D01*
X121703402Y-81717506D01*
X121703396Y-81717501D01*
X121517842Y-81587575D01*
X121474217Y-81532998D01*
X121467023Y-81463500D01*
X121498546Y-81401145D01*
X121517842Y-81384425D01*
X121540026Y-81368891D01*
X121703401Y-81254495D01*
X121870495Y-81087401D01*
X122006035Y-80893830D01*
X122105903Y-80679663D01*
X122167063Y-80451408D01*
X122187659Y-80216000D01*
X122167063Y-79980592D01*
X122105903Y-79752337D01*
X122006035Y-79538171D01*
X121984678Y-79507669D01*
X121870494Y-79344597D01*
X121703402Y-79177506D01*
X121703396Y-79177501D01*
X121517842Y-79047575D01*
X121474217Y-78992998D01*
X121467023Y-78923500D01*
X121498546Y-78861145D01*
X121517842Y-78844425D01*
X121611495Y-78778848D01*
X121703401Y-78714495D01*
X121870495Y-78547401D01*
X122006035Y-78353830D01*
X122105903Y-78139663D01*
X122167063Y-77911408D01*
X122187659Y-77676000D01*
X122167063Y-77440592D01*
X122105903Y-77212337D01*
X122006035Y-76998171D01*
X121892479Y-76835996D01*
X121870496Y-76804600D01*
X121813598Y-76747702D01*
X121748567Y-76682671D01*
X121715084Y-76621351D01*
X121720068Y-76551659D01*
X121761939Y-76495725D01*
X121792915Y-76478810D01*
X121924331Y-76429796D01*
X122039546Y-76343546D01*
X122125796Y-76228331D01*
X122176091Y-76093483D01*
X122182500Y-76033873D01*
X122182499Y-74238128D01*
X122176091Y-74178517D01*
X122175748Y-74177598D01*
X122125797Y-74043671D01*
X122125793Y-74043664D01*
X122039547Y-73928455D01*
X122039544Y-73928452D01*
X121924335Y-73842206D01*
X121924328Y-73842202D01*
X121792917Y-73793189D01*
X121736983Y-73751318D01*
X121712566Y-73685853D01*
X121727418Y-73617580D01*
X121748563Y-73589332D01*
X121870495Y-73467401D01*
X122006035Y-73273830D01*
X122033001Y-73216002D01*
X126041723Y-73216002D01*
X126060793Y-73433975D01*
X126060793Y-73433979D01*
X126117422Y-73645322D01*
X126117424Y-73645326D01*
X126117425Y-73645330D01*
X126136321Y-73685853D01*
X126209897Y-73843638D01*
X126209898Y-73843639D01*
X126335402Y-74022877D01*
X126490123Y-74177598D01*
X126669361Y-74303102D01*
X126867670Y-74395575D01*
X127079023Y-74452207D01*
X127261926Y-74468208D01*
X127296998Y-74471277D01*
X127297000Y-74471277D01*
X127297002Y-74471277D01*
X127325254Y-74468805D01*
X127514977Y-74452207D01*
X127726330Y-74395575D01*
X127924639Y-74303102D01*
X128103877Y-74177598D01*
X128258598Y-74022877D01*
X128384102Y-73843639D01*
X128476575Y-73645330D01*
X128533207Y-73433977D01*
X128552277Y-73216002D01*
X130891723Y-73216002D01*
X130910793Y-73433975D01*
X130910793Y-73433979D01*
X130967422Y-73645322D01*
X130967424Y-73645326D01*
X130967425Y-73645330D01*
X130986321Y-73685853D01*
X131059897Y-73843638D01*
X131059898Y-73843639D01*
X131185402Y-74022877D01*
X131340123Y-74177598D01*
X131519361Y-74303102D01*
X131717670Y-74395575D01*
X131929023Y-74452207D01*
X132111926Y-74468208D01*
X132146998Y-74471277D01*
X132147000Y-74471277D01*
X132147002Y-74471277D01*
X132175254Y-74468805D01*
X132364977Y-74452207D01*
X132576330Y-74395575D01*
X132774639Y-74303102D01*
X132953877Y-74177598D01*
X133108598Y-74022877D01*
X133234102Y-73843639D01*
X133326575Y-73645330D01*
X133383207Y-73433977D01*
X133402277Y-73216000D01*
X133383207Y-72998023D01*
X133326575Y-72786670D01*
X133234102Y-72588362D01*
X133234100Y-72588359D01*
X133234099Y-72588357D01*
X133108599Y-72409124D01*
X133060061Y-72360586D01*
X132953877Y-72254402D01*
X132815978Y-72157844D01*
X132774638Y-72128897D01*
X132674330Y-72082123D01*
X132576330Y-72036425D01*
X132576326Y-72036424D01*
X132576322Y-72036422D01*
X132364977Y-71979793D01*
X132147002Y-71960723D01*
X132146998Y-71960723D01*
X132001682Y-71973436D01*
X131929023Y-71979793D01*
X131929020Y-71979793D01*
X131717677Y-72036422D01*
X131717668Y-72036426D01*
X131519361Y-72128898D01*
X131519357Y-72128900D01*
X131340121Y-72254402D01*
X131185402Y-72409121D01*
X131059900Y-72588357D01*
X131059898Y-72588361D01*
X130967426Y-72786668D01*
X130967422Y-72786677D01*
X130910793Y-72998020D01*
X130910793Y-72998024D01*
X130891723Y-73215997D01*
X130891723Y-73216002D01*
X128552277Y-73216002D01*
X128552277Y-73216000D01*
X128533207Y-72998023D01*
X128476575Y-72786670D01*
X128384102Y-72588362D01*
X128384100Y-72588359D01*
X128384099Y-72588357D01*
X128258599Y-72409124D01*
X128210061Y-72360586D01*
X128103877Y-72254402D01*
X127965978Y-72157844D01*
X127924638Y-72128897D01*
X127824330Y-72082123D01*
X127726330Y-72036425D01*
X127726326Y-72036424D01*
X127726322Y-72036422D01*
X127514977Y-71979793D01*
X127297002Y-71960723D01*
X127296998Y-71960723D01*
X127151682Y-71973436D01*
X127079023Y-71979793D01*
X127079020Y-71979793D01*
X126867677Y-72036422D01*
X126867668Y-72036426D01*
X126669361Y-72128898D01*
X126669357Y-72128900D01*
X126490121Y-72254402D01*
X126335402Y-72409121D01*
X126209900Y-72588357D01*
X126209898Y-72588361D01*
X126117426Y-72786668D01*
X126117422Y-72786677D01*
X126060793Y-72998020D01*
X126060793Y-72998024D01*
X126041723Y-73215997D01*
X126041723Y-73216002D01*
X122033001Y-73216002D01*
X122105903Y-73059663D01*
X122167063Y-72831408D01*
X122187659Y-72596000D01*
X122167063Y-72360592D01*
X122105903Y-72132337D01*
X122006035Y-71918171D01*
X121891565Y-71754689D01*
X121870494Y-71724597D01*
X121703402Y-71557506D01*
X121703396Y-71557501D01*
X121517842Y-71427575D01*
X121474217Y-71372998D01*
X121467023Y-71303500D01*
X121498546Y-71241145D01*
X121517842Y-71224425D01*
X121666976Y-71120000D01*
X121703401Y-71094495D01*
X121870495Y-70927401D01*
X122006035Y-70733830D01*
X122105903Y-70519663D01*
X122167063Y-70291408D01*
X122176285Y-70186006D01*
X125591700Y-70186006D01*
X125610864Y-70417297D01*
X125610866Y-70417308D01*
X125667842Y-70642300D01*
X125761075Y-70854848D01*
X125888016Y-71049147D01*
X125888019Y-71049151D01*
X125888021Y-71049153D01*
X126045216Y-71219913D01*
X126045219Y-71219915D01*
X126045222Y-71219918D01*
X126228365Y-71362464D01*
X126228371Y-71362468D01*
X126228374Y-71362470D01*
X126432497Y-71472936D01*
X126546487Y-71512068D01*
X126652015Y-71548297D01*
X126652017Y-71548297D01*
X126652019Y-71548298D01*
X126880951Y-71586500D01*
X126880952Y-71586500D01*
X127113048Y-71586500D01*
X127113049Y-71586500D01*
X127341981Y-71548298D01*
X127561503Y-71472936D01*
X127765626Y-71362470D01*
X127792524Y-71341535D01*
X127935779Y-71230035D01*
X127948784Y-71219913D01*
X128105979Y-71049153D01*
X128232924Y-70854849D01*
X128326157Y-70642300D01*
X128383134Y-70417305D01*
X128392211Y-70307761D01*
X128402300Y-70186006D01*
X131041700Y-70186006D01*
X131060864Y-70417297D01*
X131060866Y-70417308D01*
X131117842Y-70642300D01*
X131211075Y-70854848D01*
X131338016Y-71049147D01*
X131338019Y-71049151D01*
X131338021Y-71049153D01*
X131495216Y-71219913D01*
X131495219Y-71219915D01*
X131495222Y-71219918D01*
X131678365Y-71362464D01*
X131678371Y-71362468D01*
X131678374Y-71362470D01*
X131882497Y-71472936D01*
X131996487Y-71512068D01*
X132102015Y-71548297D01*
X132102017Y-71548297D01*
X132102019Y-71548298D01*
X132330951Y-71586500D01*
X132330952Y-71586500D01*
X132563048Y-71586500D01*
X132563049Y-71586500D01*
X132791981Y-71548298D01*
X133011503Y-71472936D01*
X133215626Y-71362470D01*
X133242524Y-71341535D01*
X133385779Y-71230035D01*
X133398784Y-71219913D01*
X133555979Y-71049153D01*
X133682924Y-70854849D01*
X133776157Y-70642300D01*
X133833134Y-70417305D01*
X133842211Y-70307761D01*
X133852300Y-70186006D01*
X133852300Y-70185993D01*
X133833135Y-69954702D01*
X133833133Y-69954691D01*
X133776157Y-69729699D01*
X133682924Y-69517151D01*
X133555983Y-69322852D01*
X133555980Y-69322849D01*
X133555979Y-69322847D01*
X133398784Y-69152087D01*
X133398779Y-69152083D01*
X133398777Y-69152081D01*
X133215634Y-69009535D01*
X133215628Y-69009531D01*
X133011504Y-68899064D01*
X133011495Y-68899061D01*
X132791984Y-68823702D01*
X132620282Y-68795050D01*
X132563049Y-68785500D01*
X132330951Y-68785500D01*
X132285164Y-68793140D01*
X132102015Y-68823702D01*
X131882504Y-68899061D01*
X131882495Y-68899064D01*
X131678371Y-69009531D01*
X131678365Y-69009535D01*
X131495222Y-69152081D01*
X131495219Y-69152084D01*
X131338016Y-69322852D01*
X131211075Y-69517151D01*
X131117842Y-69729699D01*
X131060866Y-69954691D01*
X131060864Y-69954702D01*
X131041700Y-70185993D01*
X131041700Y-70186006D01*
X128402300Y-70186006D01*
X128402300Y-70185993D01*
X128383135Y-69954702D01*
X128383133Y-69954691D01*
X128326157Y-69729699D01*
X128232924Y-69517151D01*
X128105983Y-69322852D01*
X128105980Y-69322849D01*
X128105979Y-69322847D01*
X127948784Y-69152087D01*
X127948779Y-69152083D01*
X127948777Y-69152081D01*
X127765634Y-69009535D01*
X127765628Y-69009531D01*
X127561504Y-68899064D01*
X127561495Y-68899061D01*
X127341984Y-68823702D01*
X127170282Y-68795050D01*
X127113049Y-68785500D01*
X126880951Y-68785500D01*
X126835164Y-68793140D01*
X126652015Y-68823702D01*
X126432504Y-68899061D01*
X126432495Y-68899064D01*
X126228371Y-69009531D01*
X126228365Y-69009535D01*
X126045222Y-69152081D01*
X126045219Y-69152084D01*
X125888016Y-69322852D01*
X125761075Y-69517151D01*
X125667842Y-69729699D01*
X125610866Y-69954691D01*
X125610864Y-69954702D01*
X125591700Y-70185993D01*
X125591700Y-70186006D01*
X122176285Y-70186006D01*
X122187659Y-70056000D01*
X122167063Y-69820592D01*
X122105903Y-69592337D01*
X122006035Y-69378171D01*
X121967301Y-69322852D01*
X121870494Y-69184597D01*
X121703402Y-69017506D01*
X121703395Y-69017501D01*
X121692018Y-69009535D01*
X121664521Y-68990281D01*
X121509834Y-68881967D01*
X121509830Y-68881965D01*
X121509828Y-68881964D01*
X121295663Y-68782097D01*
X121295659Y-68782096D01*
X121295655Y-68782094D01*
X121067413Y-68720938D01*
X121067403Y-68720936D01*
X120832001Y-68700341D01*
X120831999Y-68700341D01*
X120596596Y-68720936D01*
X120596586Y-68720938D01*
X120368344Y-68782094D01*
X120368335Y-68782098D01*
X120154171Y-68881964D01*
X120154169Y-68881965D01*
X119960597Y-69017505D01*
X119793505Y-69184597D01*
X119657965Y-69378169D01*
X119657964Y-69378171D01*
X119558098Y-69592335D01*
X119558094Y-69592344D01*
X119496938Y-69820586D01*
X119496936Y-69820596D01*
X119476341Y-70055999D01*
X119476341Y-70056000D01*
X119496936Y-70291403D01*
X119496938Y-70291413D01*
X119558094Y-70519655D01*
X119558096Y-70519659D01*
X119558097Y-70519663D01*
X119615284Y-70642300D01*
X119657965Y-70733830D01*
X119657967Y-70733834D01*
X119793501Y-70927395D01*
X119793506Y-70927402D01*
X119960597Y-71094493D01*
X119960603Y-71094498D01*
X120146158Y-71224425D01*
X120189783Y-71279002D01*
X120196977Y-71348500D01*
X120165454Y-71410855D01*
X120146158Y-71427575D01*
X119960597Y-71557505D01*
X119793505Y-71724597D01*
X119657965Y-71918169D01*
X119657964Y-71918171D01*
X119558098Y-72132335D01*
X119558094Y-72132344D01*
X119496938Y-72360586D01*
X119496936Y-72360596D01*
X119476341Y-72595999D01*
X119476341Y-72596000D01*
X119496936Y-72831403D01*
X119496938Y-72831413D01*
X119558094Y-73059655D01*
X119558096Y-73059659D01*
X119558097Y-73059663D01*
X119630997Y-73215997D01*
X119657965Y-73273830D01*
X119657967Y-73273834D01*
X119766281Y-73428521D01*
X119793501Y-73467396D01*
X119793506Y-73467402D01*
X119915430Y-73589326D01*
X119948915Y-73650649D01*
X119943931Y-73720341D01*
X119902059Y-73776274D01*
X119871083Y-73793189D01*
X119739669Y-73842203D01*
X119739664Y-73842206D01*
X119624455Y-73928452D01*
X119624452Y-73928455D01*
X119538206Y-74043664D01*
X119538202Y-74043671D01*
X119487908Y-74178517D01*
X119481501Y-74238116D01*
X119481501Y-74238123D01*
X119481500Y-74238135D01*
X119481500Y-76033870D01*
X119481501Y-76033876D01*
X119487908Y-76093483D01*
X119538202Y-76228328D01*
X119538206Y-76228335D01*
X119624452Y-76343544D01*
X119624455Y-76343547D01*
X119739664Y-76429793D01*
X119739671Y-76429797D01*
X119871081Y-76478810D01*
X119927015Y-76520681D01*
X119951432Y-76586145D01*
X119936580Y-76654418D01*
X119915430Y-76682673D01*
X119793503Y-76804600D01*
X119657965Y-76998169D01*
X119657964Y-76998171D01*
X119558098Y-77212335D01*
X119558094Y-77212344D01*
X119496938Y-77440586D01*
X119496936Y-77440596D01*
X119476341Y-77675999D01*
X119476341Y-77676000D01*
X119496936Y-77911403D01*
X119496938Y-77911413D01*
X119558094Y-78139655D01*
X119558096Y-78139659D01*
X119558097Y-78139663D01*
X119652126Y-78341308D01*
X119657965Y-78353830D01*
X119657967Y-78353834D01*
X119793501Y-78547395D01*
X119793506Y-78547402D01*
X119960597Y-78714493D01*
X119960603Y-78714498D01*
X120146158Y-78844425D01*
X120189783Y-78899002D01*
X120196977Y-78968500D01*
X120165454Y-79030855D01*
X120146158Y-79047575D01*
X119960597Y-79177505D01*
X119793505Y-79344597D01*
X119657965Y-79538169D01*
X119657964Y-79538171D01*
X119558098Y-79752335D01*
X119558094Y-79752344D01*
X119496938Y-79980586D01*
X119496936Y-79980596D01*
X119476341Y-80215999D01*
X119476341Y-80216000D01*
X119496936Y-80451403D01*
X119496938Y-80451413D01*
X119558094Y-80679655D01*
X119558096Y-80679659D01*
X119558097Y-80679663D01*
X119657965Y-80893830D01*
X119657967Y-80893834D01*
X119793501Y-81087395D01*
X119793506Y-81087402D01*
X119960597Y-81254493D01*
X119960603Y-81254498D01*
X120146158Y-81384425D01*
X120189783Y-81439002D01*
X120196977Y-81508500D01*
X120165454Y-81570855D01*
X120146158Y-81587575D01*
X119960597Y-81717505D01*
X119793505Y-81884597D01*
X119657965Y-82078169D01*
X119657964Y-82078171D01*
X119558098Y-82292335D01*
X119558094Y-82292344D01*
X119496938Y-82520586D01*
X119496936Y-82520596D01*
X119476341Y-82755999D01*
X119476341Y-82756000D01*
X119496936Y-82991403D01*
X119496938Y-82991413D01*
X119558094Y-83219655D01*
X119558096Y-83219659D01*
X119558097Y-83219663D01*
X119657965Y-83433830D01*
X119657967Y-83433834D01*
X119793501Y-83627395D01*
X119793506Y-83627402D01*
X119960597Y-83794493D01*
X119960603Y-83794498D01*
X120146158Y-83924425D01*
X120189783Y-83979002D01*
X120196977Y-84048500D01*
X120165454Y-84110855D01*
X120146158Y-84127575D01*
X119960597Y-84257505D01*
X119793505Y-84424597D01*
X119657965Y-84618169D01*
X119657964Y-84618171D01*
X119558098Y-84832335D01*
X119558094Y-84832344D01*
X119496938Y-85060586D01*
X119496936Y-85060596D01*
X119476341Y-85295999D01*
X119476341Y-85296000D01*
X119496936Y-85531403D01*
X119496938Y-85531413D01*
X119558094Y-85759655D01*
X119558096Y-85759659D01*
X119558097Y-85759663D01*
X119657965Y-85973830D01*
X119657967Y-85973834D01*
X119766281Y-86128521D01*
X119793501Y-86167396D01*
X119793506Y-86167402D01*
X119915430Y-86289326D01*
X119948915Y-86350649D01*
X119943931Y-86420341D01*
X119902059Y-86476274D01*
X119871083Y-86493189D01*
X119739669Y-86542203D01*
X119739664Y-86542206D01*
X119624455Y-86628452D01*
X119624452Y-86628455D01*
X119538206Y-86743664D01*
X119538202Y-86743671D01*
X119487908Y-86878517D01*
X119481501Y-86938116D01*
X119481501Y-86938123D01*
X119481500Y-86938135D01*
X119481500Y-88733870D01*
X119481501Y-88733876D01*
X119487908Y-88793483D01*
X119538202Y-88928328D01*
X119538206Y-88928335D01*
X119624452Y-89043544D01*
X119624455Y-89043547D01*
X119739664Y-89129793D01*
X119739671Y-89129797D01*
X119871081Y-89178810D01*
X119927015Y-89220681D01*
X119951432Y-89286145D01*
X119936580Y-89354418D01*
X119915430Y-89382673D01*
X119793503Y-89504600D01*
X119657965Y-89698169D01*
X119657964Y-89698171D01*
X119558098Y-89912335D01*
X119558094Y-89912344D01*
X119496938Y-90140586D01*
X119496936Y-90140596D01*
X119476341Y-90375999D01*
X119476341Y-90376000D01*
X119496936Y-90611403D01*
X119496938Y-90611413D01*
X119558094Y-90839655D01*
X119558096Y-90839659D01*
X119558097Y-90839663D01*
X119586574Y-90900732D01*
X119657965Y-91053830D01*
X119657967Y-91053834D01*
X119793501Y-91247395D01*
X119793506Y-91247402D01*
X119960597Y-91414493D01*
X119960603Y-91414498D01*
X120146158Y-91544425D01*
X120189783Y-91599002D01*
X120196977Y-91668500D01*
X120165454Y-91730855D01*
X120146158Y-91747575D01*
X119960597Y-91877505D01*
X119793505Y-92044597D01*
X119657965Y-92238169D01*
X119657964Y-92238171D01*
X119558098Y-92452335D01*
X119558094Y-92452344D01*
X119496938Y-92680586D01*
X119496936Y-92680596D01*
X119476341Y-92915999D01*
X119476341Y-92916000D01*
X119496936Y-93151403D01*
X119496938Y-93151413D01*
X119558094Y-93379655D01*
X119558096Y-93379659D01*
X119558097Y-93379663D01*
X119577519Y-93421313D01*
X119657965Y-93593830D01*
X119657967Y-93593834D01*
X119793501Y-93787395D01*
X119793506Y-93787402D01*
X119960597Y-93954493D01*
X119960603Y-93954498D01*
X120146158Y-94084425D01*
X120189783Y-94139002D01*
X120196977Y-94208500D01*
X120165454Y-94270855D01*
X120146158Y-94287575D01*
X119960597Y-94417505D01*
X119793505Y-94584597D01*
X119657965Y-94778169D01*
X119657964Y-94778171D01*
X119558098Y-94992335D01*
X119558094Y-94992344D01*
X119496938Y-95220586D01*
X119496936Y-95220596D01*
X119476341Y-95455999D01*
X119476341Y-95456000D01*
X119496936Y-95691403D01*
X119496938Y-95691413D01*
X119558094Y-95919655D01*
X119558096Y-95919659D01*
X119558097Y-95919663D01*
X119657965Y-96133830D01*
X119657967Y-96133834D01*
X119793501Y-96327395D01*
X119793506Y-96327402D01*
X119960597Y-96494493D01*
X119960603Y-96494498D01*
X120146158Y-96624425D01*
X120189783Y-96679002D01*
X120196977Y-96748500D01*
X120165454Y-96810855D01*
X120146158Y-96827575D01*
X119960597Y-96957505D01*
X119793505Y-97124597D01*
X119657965Y-97318169D01*
X119657964Y-97318171D01*
X119558098Y-97532335D01*
X119558094Y-97532344D01*
X119496938Y-97760586D01*
X119496936Y-97760596D01*
X119476341Y-97995999D01*
X119476341Y-97996000D01*
X119496936Y-98231403D01*
X119496938Y-98231413D01*
X119558094Y-98459655D01*
X119558096Y-98459659D01*
X119558097Y-98459663D01*
X119655946Y-98669500D01*
X119657965Y-98673830D01*
X119657967Y-98673834D01*
X119694639Y-98726206D01*
X119793501Y-98867396D01*
X119793506Y-98867402D01*
X119915430Y-98989326D01*
X119948915Y-99050649D01*
X119943931Y-99120341D01*
X119902059Y-99176274D01*
X119871083Y-99193189D01*
X119739669Y-99242203D01*
X119739664Y-99242206D01*
X119624455Y-99328452D01*
X119624452Y-99328455D01*
X119538206Y-99443664D01*
X119538202Y-99443671D01*
X119487908Y-99578517D01*
X119481501Y-99638116D01*
X119481501Y-99638123D01*
X119481500Y-99638135D01*
X119481500Y-101433870D01*
X119481501Y-101433876D01*
X119487908Y-101493483D01*
X119538202Y-101628328D01*
X119538206Y-101628335D01*
X119624452Y-101743544D01*
X119624455Y-101743547D01*
X119739664Y-101829793D01*
X119739671Y-101829797D01*
X119871081Y-101878810D01*
X119927015Y-101920681D01*
X119951432Y-101986145D01*
X119936580Y-102054418D01*
X119915430Y-102082673D01*
X119793503Y-102204600D01*
X119657965Y-102398169D01*
X119657964Y-102398171D01*
X119558098Y-102612335D01*
X119558094Y-102612344D01*
X119496938Y-102840586D01*
X119496936Y-102840596D01*
X119476341Y-103075999D01*
X119476341Y-103076000D01*
X119496936Y-103311403D01*
X119496938Y-103311413D01*
X119558094Y-103539655D01*
X119558096Y-103539659D01*
X119558097Y-103539663D01*
X119657965Y-103753830D01*
X119657967Y-103753834D01*
X119793501Y-103947395D01*
X119793506Y-103947402D01*
X119960597Y-104114493D01*
X119960603Y-104114498D01*
X120146158Y-104244425D01*
X120189783Y-104299002D01*
X120196977Y-104368500D01*
X120165454Y-104430855D01*
X120146158Y-104447575D01*
X119960597Y-104577505D01*
X119793505Y-104744597D01*
X119657965Y-104938169D01*
X119657964Y-104938171D01*
X119558098Y-105152335D01*
X119558094Y-105152344D01*
X119496938Y-105380586D01*
X119496936Y-105380596D01*
X119476341Y-105615999D01*
X119476341Y-105616000D01*
X119496936Y-105851403D01*
X119496938Y-105851413D01*
X119558094Y-106079655D01*
X119558096Y-106079659D01*
X119558097Y-106079663D01*
X119657965Y-106293830D01*
X119657967Y-106293834D01*
X119793501Y-106487395D01*
X119793506Y-106487402D01*
X119960597Y-106654493D01*
X119960603Y-106654498D01*
X120146158Y-106784425D01*
X120189783Y-106839002D01*
X120196977Y-106908500D01*
X120165454Y-106970855D01*
X120146158Y-106987575D01*
X119960597Y-107117505D01*
X119793505Y-107284597D01*
X119657965Y-107478169D01*
X119657964Y-107478171D01*
X119558098Y-107692335D01*
X119558094Y-107692344D01*
X119496938Y-107920586D01*
X119496936Y-107920596D01*
X119476341Y-108155999D01*
X119476341Y-108156000D01*
X119496936Y-108391403D01*
X119496938Y-108391413D01*
X119558094Y-108619655D01*
X119558096Y-108619659D01*
X119558097Y-108619663D01*
X119657965Y-108833830D01*
X119657967Y-108833834D01*
X119793501Y-109027395D01*
X119793506Y-109027402D01*
X119960597Y-109194493D01*
X119960603Y-109194498D01*
X120146158Y-109324425D01*
X120189783Y-109379002D01*
X120196977Y-109448500D01*
X120165454Y-109510855D01*
X120146158Y-109527575D01*
X119960597Y-109657505D01*
X119793505Y-109824597D01*
X119657965Y-110018169D01*
X119657964Y-110018171D01*
X119558098Y-110232335D01*
X119558094Y-110232344D01*
X119496938Y-110460586D01*
X119496936Y-110460596D01*
X119476341Y-110695999D01*
X119476341Y-110696000D01*
X119496936Y-110931403D01*
X119496938Y-110931413D01*
X119558094Y-111159655D01*
X119558096Y-111159659D01*
X119558097Y-111159663D01*
X119657965Y-111373830D01*
X119657967Y-111373834D01*
X119766281Y-111528521D01*
X119793501Y-111567396D01*
X119793506Y-111567402D01*
X119915430Y-111689326D01*
X119948915Y-111750649D01*
X119943931Y-111820341D01*
X119902059Y-111876274D01*
X119871083Y-111893189D01*
X119739669Y-111942203D01*
X119739664Y-111942206D01*
X119624455Y-112028452D01*
X119624452Y-112028455D01*
X119538206Y-112143664D01*
X119538202Y-112143671D01*
X119487908Y-112278517D01*
X119481501Y-112338116D01*
X119481501Y-112338123D01*
X119481500Y-112338135D01*
X119481500Y-114133870D01*
X119481501Y-114133876D01*
X119487908Y-114193483D01*
X119538202Y-114328328D01*
X119538206Y-114328335D01*
X119624452Y-114443544D01*
X119624455Y-114443547D01*
X119739664Y-114529793D01*
X119739671Y-114529797D01*
X119871081Y-114578810D01*
X119927015Y-114620681D01*
X119951432Y-114686145D01*
X119936580Y-114754418D01*
X119915430Y-114782673D01*
X119793503Y-114904600D01*
X119657965Y-115098169D01*
X119657964Y-115098171D01*
X119558098Y-115312335D01*
X119558094Y-115312344D01*
X119496938Y-115540586D01*
X119496936Y-115540596D01*
X119476341Y-115775999D01*
X119476341Y-115776000D01*
X119496936Y-116011403D01*
X119496938Y-116011413D01*
X119558094Y-116239655D01*
X119558096Y-116239659D01*
X119558097Y-116239663D01*
X119657965Y-116453830D01*
X119657967Y-116453834D01*
X119793501Y-116647395D01*
X119793506Y-116647402D01*
X119960597Y-116814493D01*
X119960603Y-116814498D01*
X120146158Y-116944425D01*
X120189783Y-116999002D01*
X120196977Y-117068500D01*
X120165454Y-117130855D01*
X120146158Y-117147575D01*
X119960597Y-117277505D01*
X119793505Y-117444597D01*
X119657965Y-117638169D01*
X119657964Y-117638171D01*
X119558098Y-117852335D01*
X119558094Y-117852344D01*
X119496938Y-118080586D01*
X119496936Y-118080596D01*
X119476341Y-118315999D01*
X119476341Y-118316000D01*
X113147738Y-118316000D01*
X113030281Y-66164789D01*
X113049815Y-66097707D01*
X113102516Y-66051833D01*
X113154787Y-66040512D01*
X205615958Y-66420490D01*
G37*
%TD.AperFunction*%
%TD*%
M02*
