%TF.GenerationSoftware,KiCad,Pcbnew,8.0.0*%
%TF.CreationDate,2024-03-31T23:26:35-03:00*%
%TF.ProjectId,Ponderada Semana 6,506f6e64-6572-4616-9461-2053656d616e,rev?*%
%TF.SameCoordinates,Original*%
%TF.FileFunction,Soldermask,Top*%
%TF.FilePolarity,Negative*%
%FSLAX46Y46*%
G04 Gerber Fmt 4.6, Leading zero omitted, Abs format (unit mm)*
G04 Created by KiCad (PCBNEW 8.0.0) date 2024-03-31 23:26:35*
%MOMM*%
%LPD*%
G01*
G04 APERTURE LIST*
G04 Aperture macros list*
%AMRoundRect*
0 Rectangle with rounded corners*
0 $1 Rounding radius*
0 $2 $3 $4 $5 $6 $7 $8 $9 X,Y pos of 4 corners*
0 Add a 4 corners polygon primitive as box body*
4,1,4,$2,$3,$4,$5,$6,$7,$8,$9,$2,$3,0*
0 Add four circle primitives for the rounded corners*
1,1,$1+$1,$2,$3*
1,1,$1+$1,$4,$5*
1,1,$1+$1,$6,$7*
1,1,$1+$1,$8,$9*
0 Add four rect primitives between the rounded corners*
20,1,$1+$1,$2,$3,$4,$5,0*
20,1,$1+$1,$4,$5,$6,$7,0*
20,1,$1+$1,$6,$7,$8,$9,0*
20,1,$1+$1,$8,$9,$2,$3,0*%
G04 Aperture macros list end*
%ADD10C,1.400000*%
%ADD11O,1.400000X1.400000*%
%ADD12C,1.800000*%
%ADD13R,1.800000X1.800000*%
%ADD14R,1.700000X3.500000*%
%ADD15O,1.700000X1.700000*%
%ADD16R,1.700000X1.700000*%
%ADD17R,3.500000X1.700000*%
%ADD18O,1.800000X1.800000*%
%ADD19O,1.500000X1.500000*%
%ADD20C,1.600000*%
%ADD21R,1.500000X1.050000*%
%ADD22O,1.500000X1.050000*%
%ADD23O,2.000000X3.000000*%
%ADD24R,3.000000X2.000000*%
%ADD25O,3.000000X2.000000*%
%ADD26R,0.850000X0.850000*%
%ADD27RoundRect,0.250000X0.600000X-0.400000X0.600000X0.400000X-0.600000X0.400000X-0.600000X-0.400000X0*%
G04 APERTURE END LIST*
D10*
%TO.C,R2*%
X156840000Y-100965000D03*
D11*
X149220000Y-100965000D03*
%TD*%
D10*
%TO.C,R1*%
X149484000Y-71120000D03*
D11*
X157104000Y-71120000D03*
%TD*%
D12*
%TO.C,D1*%
X148082000Y-78110000D03*
D13*
X148082000Y-80650000D03*
%TD*%
D14*
%TO.C,U1*%
X132262000Y-118986000D03*
D15*
X132262000Y-118086000D03*
D14*
X129722000Y-118986000D03*
D16*
X129722000Y-118086000D03*
D14*
X127182000Y-118986000D03*
D15*
X127182000Y-118086000D03*
D17*
X139512000Y-70056000D03*
D15*
X138612000Y-70056000D03*
D17*
X139512000Y-72596000D03*
D15*
X138612000Y-72596000D03*
D17*
X139512000Y-75136000D03*
D16*
X138612000Y-75136000D03*
D17*
X139512000Y-77676000D03*
D15*
X138612000Y-77676000D03*
D17*
X139512000Y-80216000D03*
D15*
X138612000Y-80216000D03*
D17*
X139512000Y-82756000D03*
D15*
X138612000Y-82756000D03*
D17*
X139512000Y-85296000D03*
D15*
X138612000Y-85296000D03*
D17*
X139512000Y-87836000D03*
D16*
X138612000Y-87836000D03*
D17*
X139512000Y-90376000D03*
D15*
X138612000Y-90376000D03*
D17*
X139512000Y-92916000D03*
D15*
X138612000Y-92916000D03*
D17*
X139512000Y-95456000D03*
D15*
X138612000Y-95456000D03*
D17*
X139512000Y-97996000D03*
D15*
X138612000Y-97996000D03*
D17*
X139512000Y-100536000D03*
D16*
X138612000Y-100536000D03*
D17*
X139512000Y-103076000D03*
D15*
X138612000Y-103076000D03*
D17*
X139512000Y-105616000D03*
D15*
X138612000Y-105616000D03*
D17*
X139512000Y-108156000D03*
D15*
X138612000Y-108156000D03*
D17*
X139512000Y-110696000D03*
D15*
X138612000Y-110696000D03*
D17*
X139512000Y-113236000D03*
D16*
X138612000Y-113236000D03*
D17*
X139512000Y-115776000D03*
D15*
X138612000Y-115776000D03*
D17*
X139512000Y-118316000D03*
D15*
X138612000Y-118316000D03*
D17*
X119932000Y-118316000D03*
D15*
X120832000Y-118316000D03*
D17*
X119932000Y-115776000D03*
D15*
X120832000Y-115776000D03*
D17*
X119932000Y-113236000D03*
D16*
X120832000Y-113236000D03*
D17*
X119932000Y-110696000D03*
D15*
X120832000Y-110696000D03*
D17*
X119932000Y-108156000D03*
D15*
X120832000Y-108156000D03*
D17*
X119932000Y-105616000D03*
D15*
X120832000Y-105616000D03*
D17*
X119932000Y-103076000D03*
D15*
X120832000Y-103076000D03*
D17*
X119932000Y-100536000D03*
D16*
X120832000Y-100536000D03*
D17*
X119932000Y-97996000D03*
D15*
X120832000Y-97996000D03*
D17*
X119932000Y-95456000D03*
D15*
X120832000Y-95456000D03*
D17*
X119932000Y-92916000D03*
D15*
X120832000Y-92916000D03*
D17*
X119932000Y-90376000D03*
D15*
X120832000Y-90376000D03*
D17*
X119932000Y-87836000D03*
D16*
X120832000Y-87836000D03*
D17*
X119932000Y-85296000D03*
D15*
X120832000Y-85296000D03*
D17*
X119932000Y-82756000D03*
D15*
X120832000Y-82756000D03*
D17*
X119932000Y-80216000D03*
D15*
X120832000Y-80216000D03*
D17*
X119932000Y-77676000D03*
D15*
X120832000Y-77676000D03*
D17*
X119932000Y-75136000D03*
D16*
X120832000Y-75136000D03*
D17*
X119932000Y-72596000D03*
D15*
X120832000Y-72596000D03*
D17*
X119932000Y-70056000D03*
D15*
X120832000Y-70056000D03*
D18*
X132447000Y-70186000D03*
D19*
X132147000Y-73216000D03*
X127297000Y-73216000D03*
D18*
X126997000Y-70186000D03*
%TD*%
D20*
%TO.C,PhotoResistor1*%
X152146000Y-93648000D03*
X152146000Y-90248000D03*
%TD*%
D21*
%TO.C,Q1*%
X165629000Y-99695000D03*
D22*
X165629000Y-100965000D03*
X165629000Y-102235000D03*
%TD*%
D23*
%TO.C,K1*%
X185823000Y-76260000D03*
X190863000Y-83760000D03*
D24*
X165523000Y-83760000D03*
D25*
X165523000Y-76260000D03*
%TD*%
D26*
%TO.C,J1*%
X198247000Y-83820000D03*
%TD*%
D27*
%TO.C,D2*%
X155575000Y-81588000D03*
X155575000Y-78088000D03*
%TD*%
M02*
